<svg xmlns="http://www.w3.org/2000/svg" xmlns:xlink="http://www.w3.org/1999/xlink" width="500" zoomAndPan="magnify" viewBox="0 0 375 374.999991" height="500" preserveAspectRatio="xMidYMid meet" version="1.0"><defs><g/><clipPath id="6f26a9dc6c"><path d="M 166 196.832031 L 191.558594 196.832031 L 191.558594 218 L 166 218 Z M 166 196.832031 " clip-rule="nonzero"/></clipPath><clipPath id="68c81990fa"><path d="M 161.382812 203 L 189 203 L 189 227 L 161.382812 227 Z M 161.382812 203 " clip-rule="nonzero"/></clipPath></defs><path fill="#60bd81" d="M 117.246094 110.179688 L 111.503906 100.007812 C 110.171875 97.648438 106.542969 99.765625 107.878906 102.128906 L 113.621094 112.300781 C 114.953125 114.65625 118.582031 112.542969 117.246094 110.179688 Z M 117.246094 110.179688 " fill-opacity="1" fill-rule="nonzero"/><path fill="#60bd81" d="M 156.449219 100.949219 L 156.449219 89.121094 C 156.449219 86.410156 152.246094 86.410156 152.246094 89.121094 L 152.246094 100.949219 C 152.246094 103.660156 156.449219 103.660156 156.449219 100.949219 Z M 156.449219 100.949219 " fill-opacity="1" fill-rule="nonzero"/><path fill="#60bd81" d="M 195.148438 112.632812 L 200.816406 102.128906 C 202.101562 99.746094 198.476562 97.625 197.1875 100.007812 L 191.519531 110.515625 C 190.234375 112.898438 193.859375 115.019531 195.148438 112.632812 Z M 195.148438 112.632812 " fill-opacity="1" fill-rule="nonzero"/><path fill="#60bd81" d="M 222.371094 141.785156 L 232.765625 135.585938 C 235.089844 134.203125 232.980469 130.570312 230.648438 131.960938 L 220.25 138.15625 C 217.925781 139.542969 220.039062 143.171875 222.371094 141.785156 Z M 222.371094 141.785156 " fill-opacity="1" fill-rule="nonzero"/><path fill="#60bd81" d="M 231.644531 180.53125 L 243.660156 180.53125 C 246.367188 180.53125 246.367188 176.332031 243.660156 176.332031 L 231.644531 176.332031 C 228.9375 176.332031 228.9375 180.53125 231.644531 180.53125 Z M 231.644531 180.53125 " fill-opacity="1" fill-rule="nonzero"/><path fill="#60bd81" d="M 220.402344 219.046875 L 230.648438 224.898438 C 233.007812 226.246094 235.121094 222.613281 232.769531 221.273438 L 222.523438 215.417969 C 220.167969 214.074219 218.050781 217.703125 220.402344 219.046875 Z M 220.402344 219.046875 " fill-opacity="1" fill-rule="nonzero"/><path fill="#60bd81" d="M 154.832031 173.070312 L 154.535156 173.070312 C 151.675781 173.070312 149.285156 175.460938 149.285156 178.324219 C 149.285156 181.1875 151.675781 183.574219 154.535156 183.574219 L 154.832031 183.574219 C 157.695312 183.574219 160.082031 181.1875 160.082031 178.324219 C 160.082031 175.460938 157.695312 173.070312 154.832031 173.070312 Z M 154.832031 173.070312 " fill-opacity="1" fill-rule="nonzero"/><path fill="#60bd81" d="M 155.550781 178.632812 L 155.550781 131.449219 C 155.550781 130.09375 153.449219 130.09375 153.449219 131.449219 L 153.449219 178.632812 C 153.449219 179.988281 155.550781 179.988281 155.550781 178.632812 Z M 155.550781 178.632812 " fill-opacity="1" fill-rule="nonzero"/><path fill="#60bd81" d="M 155.070312 177.792969 L 123.957031 123.957031 L 121.46875 119.652344 C 120.792969 118.480469 118.976562 119.535156 119.65625 120.710938 L 150.769531 174.546875 L 153.257812 178.851562 C 153.933594 180.023438 155.75 178.96875 155.070312 177.792969 Z M 155.070312 177.792969 " fill-opacity="1" fill-rule="nonzero"/><g fill="#eeba2b" fill-opacity="1"><g transform="translate(90.044391, 220.251695)"><g><path d="M 21.863281 -16.777344 C 22.128906 -17.664062 22.199219 -18.144531 22.726562 -19.199219 L 22.03125 -19.199219 C 21.9375 -18.167969 21.746094 -17.664062 21.480469 -16.753906 L 16.96875 -0.816406 L 13.273438 -13.945312 L 14.0625 -16.777344 C 14.328125 -17.664062 14.398438 -18.144531 14.929688 -19.199219 L 14.207031 -19.199219 C 14.136719 -18.167969 13.921875 -17.664062 13.679688 -16.753906 L 13.082031 -14.617188 L 12.503906 -16.632812 C 12.214844 -17.664062 12.046875 -18.121094 12 -19.199219 L 9 -19.199219 C 9.480469 -18.265625 9.695312 -17.734375 10.007812 -16.632812 L 11.832031 -10.175781 L 9.167969 -0.816406 L 4.703125 -16.632812 C 4.417969 -17.664062 4.25 -18.121094 4.199219 -19.199219 L 1.199219 -19.199219 C 1.679688 -18.265625 1.894531 -17.734375 2.183594 -16.632812 L 6.886719 0 L 9.71875 0 C 9.550781 -0.527344 9.550781 -0.792969 9.671875 -1.296875 L 12 -9.527344 L 14.6875 0 L 17.519531 0 C 17.351562 -0.527344 17.351562 -0.792969 17.496094 -1.296875 Z M 21.863281 -16.777344 "/></g></g></g><g fill="#f8cf40" fill-opacity="1"><g transform="translate(179.814073, 219.543891)"><g/></g></g><g fill="#f8cf40" fill-opacity="1"><g transform="translate(183.919491, 219.543891)"><g/></g></g><g fill="#f8cf40" fill-opacity="1"><g transform="translate(188.024908, 219.543891)"><g/></g></g><g fill="#f8cf40" fill-opacity="1"><g transform="translate(192.130326, 219.543891)"><g/></g></g><g fill="#f8cf40" fill-opacity="1"><g transform="translate(196.237414, 219.543891)"><g><path d="M 0.863281 -11.484375 C 0.949219 -10.28125 0.976562 -9.707031 0.976562 -8.65625 L 0.976562 -4.882812 C 0.976562 -0.789062 2.671875 0.289062 5.339844 0.289062 C 7.894531 0.289062 9.160156 -1.121094 9.160156 -4.882812 L 9.160156 -8.65625 C 9.160156 -9.707031 9.175781 -10.28125 9.273438 -11.484375 L 8.816406 -11.484375 C 8.914062 -10.28125 8.929688 -9.707031 8.929688 -8.65625 L 8.929688 -4.882812 C 8.929688 -1.320312 7.78125 -0.0703125 5.585938 -0.0703125 C 3.316406 -0.0703125 2.382812 -1.464844 2.382812 -4.882812 L 2.382812 -8.65625 C 2.382812 -9.707031 2.410156 -10.28125 2.5 -11.484375 Z M 0.863281 -11.484375 "/></g></g></g><g fill="#f8cf40" fill-opacity="1"><g transform="translate(206.371769, 219.543891)"><g><path d="M 9.246094 -11.484375 L 0.289062 -11.484375 L 0.917969 -10.683594 C 2.152344 -11.167969 3.257812 -11.257812 3.890625 -11.257812 L 4.0625 -11.257812 L 4.0625 -2.828125 C 4.0625 -1.78125 4.035156 -1.207031 3.949219 0 L 5.585938 0 C 5.5 -1.207031 5.46875 -1.78125 5.46875 -2.828125 L 5.46875 -11.257812 L 5.640625 -11.257812 C 6.273438 -11.257812 7.378906 -11.167969 8.613281 -10.683594 Z M 9.246094 -11.484375 "/></g></g></g><g clip-path="url(#6f26a9dc6c)"><path fill="#f8cf40" d="M 167.242188 201.679688 C 167.109375 201.796875 166.9375 201.859375 166.765625 201.847656 C 166.589844 201.839844 166.425781 201.761719 166.308594 201.628906 C 166.191406 201.5 166.128906 201.328125 166.136719 201.152344 C 166.148438 200.980469 166.226562 200.8125 166.355469 200.695312 C 167.734375 199.457031 169.332031 198.480469 171.066406 197.820312 C 172.785156 197.167969 174.609375 196.828125 176.449219 196.828125 C 177.738281 196.828125 179.023438 196.996094 180.273438 197.324219 C 181.5625 197.667969 182.800781 198.179688 183.957031 198.847656 C 185.132812 199.523438 186.214844 200.359375 187.167969 201.328125 C 188.085938 202.265625 188.882812 203.320312 189.527344 204.464844 C 190.164062 205.59375 190.652344 206.800781 190.984375 208.054688 C 191.3125 209.308594 191.480469 210.597656 191.480469 211.894531 C 191.480469 213.804688 191.113281 215.695312 190.40625 217.464844 C 190.339844 217.628906 190.210938 217.757812 190.050781 217.828125 C 189.890625 217.894531 189.707031 217.898438 189.546875 217.832031 C 189.382812 217.769531 189.253906 217.640625 189.183594 217.480469 C 189.113281 217.320312 189.113281 217.136719 189.179688 216.972656 C 189.824219 215.359375 190.160156 213.636719 190.15625 211.894531 C 190.15625 210.710938 190.003906 209.535156 189.703125 208.390625 C 189.402344 207.246094 188.957031 206.144531 188.375 205.117188 C 187.789062 204.070312 187.0625 203.109375 186.222656 202.253906 C 185.355469 201.371094 184.367188 200.609375 183.292969 199.992188 C 182.242188 199.382812 181.109375 198.914062 179.933594 198.601562 C 178.796875 198.304688 177.625 198.152344 176.449219 198.152344 C 174.769531 198.152344 173.105469 198.457031 171.535156 199.058594 C 169.953125 199.660156 168.5 200.546875 167.242188 201.679688 Z M 167.242188 201.679688 " fill-opacity="1" fill-rule="nonzero"/></g><g clip-path="url(#68c81990fa)"><path fill="#f8cf40" d="M 187.699219 219.71875 C 187.800781 219.574219 187.953125 219.476562 188.125 219.445312 C 188.296875 219.414062 188.476562 219.453125 188.617188 219.554688 C 188.761719 219.652344 188.859375 219.808594 188.890625 219.980469 C 188.921875 220.152344 188.882812 220.332031 188.78125 220.472656 C 187.417969 222.429688 185.609375 224.039062 183.503906 225.164062 C 182.4375 225.730469 181.308594 226.171875 180.132812 226.46875 C 178.925781 226.773438 177.679688 226.925781 176.433594 226.925781 C 175.414062 226.925781 174.398438 226.824219 173.402344 226.621094 C 172.433594 226.421875 171.484375 226.128906 170.574219 225.742188 C 168.789062 224.984375 167.164062 223.890625 165.792969 222.515625 C 164.417969 221.144531 163.324219 219.519531 162.566406 217.734375 C 162.179688 216.824219 161.886719 215.875 161.6875 214.910156 C 161.484375 213.910156 161.382812 212.894531 161.382812 211.878906 C 161.382812 210.324219 161.621094 208.78125 162.089844 207.300781 C 162.546875 205.875 163.214844 204.519531 164.074219 203.289062 C 164.171875 203.148438 164.328125 203.050781 164.5 203.019531 C 164.671875 202.988281 164.851562 203.027344 164.992188 203.128906 C 165.136719 203.226562 165.234375 203.378906 165.265625 203.554688 C 165.296875 203.726562 165.257812 203.902344 165.15625 204.046875 C 164.375 205.167969 163.765625 206.402344 163.351562 207.703125 C 162.921875 209.054688 162.703125 210.460938 162.703125 211.878906 C 162.703125 212.804688 162.796875 213.734375 162.984375 214.644531 C 163.164062 215.527344 163.433594 216.386719 163.78125 217.21875 C 164.472656 218.847656 165.472656 220.332031 166.726562 221.582031 C 167.976562 222.835938 169.460938 223.835938 171.089844 224.527344 C 171.921875 224.878906 172.785156 225.144531 173.664062 225.328125 C 174.574219 225.511719 175.503906 225.605469 176.433594 225.605469 C 177.570312 225.605469 178.707031 225.464844 179.808594 225.1875 C 180.878906 224.914062 181.910156 224.515625 182.882812 223.996094 C 184.800781 222.96875 186.453125 221.503906 187.699219 219.71875 Z M 187.699219 219.71875 " fill-opacity="1" fill-rule="nonzero"/></g><path fill="#f8cf40" d="M 175.769531 201.488281 C 175.769531 201.3125 175.839844 201.144531 175.964844 201.019531 C 176.089844 200.894531 176.257812 200.824219 176.433594 200.824219 C 176.605469 200.824219 176.773438 200.894531 176.898438 201.019531 C 177.023438 201.144531 177.09375 201.3125 177.09375 201.488281 L 177.09375 212.859375 L 170.15625 216.894531 C 170.003906 216.984375 169.824219 217.007812 169.65625 216.964844 C 169.484375 216.917969 169.339844 216.808594 169.253906 216.65625 C 169.164062 216.503906 169.140625 216.324219 169.183594 216.15625 C 169.230469 215.988281 169.339844 215.84375 169.492188 215.753906 L 175.769531 212.101562 Z M 175.769531 201.488281 " fill-opacity="1" fill-rule="nonzero"/><g fill="#eeba2b" fill-opacity="1"><g transform="translate(112.548844, 218.095345)"><g><path d="M 9.160156 -1.691406 L 6.078125 -12.632812 L 4.214844 -12.632812 C 4.328125 -12.285156 4.328125 -12.109375 4.246094 -11.78125 L 1.359375 -1.59375 C 1.183594 -1.011719 1.136719 -0.695312 0.789062 0 L 1.246094 0 C 1.3125 -0.679688 1.4375 -1.011719 1.609375 -1.609375 L 2.464844 -4.59375 L 6.695312 -4.59375 L 7.515625 -1.691406 C 7.707031 -1.011719 7.816406 -0.710938 7.847656 0 L 9.820312 0 C 9.503906 -0.617188 9.363281 -0.964844 9.160156 -1.691406 Z M 2.527344 -4.847656 L 4.578125 -12.09375 L 6.632812 -4.847656 Z M 2.527344 -4.847656 "/></g></g></g><g fill="#eeba2b" fill-opacity="1"><g transform="translate(123.15782, 218.095345)"><g><path d="M 10.167969 -12.632812 L 0.316406 -12.632812 L 1.011719 -11.746094 C 2.367188 -12.285156 3.585938 -12.378906 4.277344 -12.378906 L 4.46875 -12.378906 L 4.46875 -3.109375 C 4.46875 -1.957031 4.4375 -1.328125 4.34375 0 L 6.140625 0 C 6.046875 -1.328125 6.015625 -1.957031 6.015625 -3.109375 L 6.015625 -12.378906 L 6.207031 -12.378906 C 6.898438 -12.378906 8.117188 -12.285156 9.472656 -11.746094 Z M 10.167969 -12.632812 "/></g></g></g><g fill="#eeba2b" fill-opacity="1"><g transform="translate(133.6405, 218.095345)"><g><path d="M 12.742188 -5.257812 C 12.046875 -2.164062 10.34375 -0.15625 7.578125 -0.15625 C 4.199219 -0.15625 2.652344 -3.125 2.652344 -6.570312 C 2.652344 -9.949219 4.40625 -12.695312 7.167969 -12.695312 C 9.175781 -12.695312 10.261719 -11.085938 10.753906 -9.078125 L 12.332031 -9.503906 C 11.257812 -11.667969 9.617188 -12.949219 7.167969 -12.949219 C 3.695312 -12.949219 0.949219 -10.3125 0.949219 -6.472656 C 0.949219 -2.636719 3.253906 0.316406 7.183594 0.316406 C 10.4375 0.316406 12.238281 -1.894531 12.964844 -5.257812 Z M 12.742188 -5.257812 "/></g></g></g><g fill="#eeba2b" fill-opacity="1"><g transform="translate(147.233249, 218.095345)"><g><path d="M 10.105469 -9.519531 C 10.105469 -10.675781 10.121094 -11.304688 10.230469 -12.632812 L 8.433594 -12.632812 C 8.527344 -11.304688 8.558594 -10.675781 8.558594 -9.519531 L 8.558594 -6.441406 L 2.777344 -6.441406 L 2.777344 -9.519531 C 2.777344 -10.675781 2.8125 -11.304688 2.90625 -12.632812 L 1.105469 -12.632812 C 1.199219 -11.304688 1.230469 -10.675781 1.230469 -9.519531 L 1.230469 -3.109375 C 1.230469 -1.957031 1.199219 -1.328125 1.105469 0 L 2.90625 0 C 2.8125 -1.328125 2.777344 -1.957031 2.777344 -3.109375 L 2.777344 -6.191406 L 8.558594 -6.191406 L 8.558594 -3.109375 C 8.558594 -1.957031 8.527344 -1.328125 8.433594 0 L 10.230469 0 C 10.121094 -1.328125 10.105469 -1.957031 10.105469 -3.109375 Z M 10.105469 -9.519531 "/></g></g></g></svg>