<svg xmlns="http://www.w3.org/2000/svg" xmlns:xlink="http://www.w3.org/1999/xlink" width="500" zoomAndPan="magnify" viewBox="0 0 375 374.999991" height="500" preserveAspectRatio="xMidYMid meet" version="1.0"><defs><g/><clipPath id="e76ec5e459"><path d="M 146.371094 153.785156 L 228.871094 153.785156 L 228.871094 236.285156 L 146.371094 236.285156 Z M 146.371094 153.785156 " clip-rule="nonzero"/></clipPath><clipPath id="5bd90b37da"><path d="M 146.371094 153.785156 L 221 153.785156 L 221 236.285156 L 146.371094 236.285156 Z M 146.371094 153.785156 " clip-rule="nonzero"/></clipPath></defs><g clip-path="url(#e76ec5e459)"><path stroke-linecap="butt" transform="matrix(1.161972, 0, 0, 1.161972, 146.370609, 153.783741)" fill="none" stroke-linejoin="miter" d="M 69.998628 35.501223 C 69.998628 36.630769 69.94484 37.756953 69.833903 38.883136 C 69.722965 40.005959 69.55824 41.122057 69.336365 42.231432 C 69.117851 43.337446 68.842188 44.433374 68.516099 45.515855 C 68.186649 46.594975 67.806772 47.657286 67.373107 48.702788 C 66.942804 49.744928 66.458713 50.766898 65.927557 51.761974 C 65.39304 52.760411 64.81482 53.728593 64.186174 54.66652 C 63.557529 55.607808 62.88518 56.512116 62.169129 57.38617 C 61.453078 58.260223 60.693324 59.097297 59.896591 59.89403 C 59.096496 60.694125 58.259422 61.450517 57.385369 62.16993 C 56.514677 62.885981 55.607007 63.55833 54.665719 64.186975 C 53.727792 64.81226 52.75961 65.393841 51.764534 65.924997 C 50.766097 66.459514 49.747489 66.940243 48.701987 67.373908 C 47.659846 67.807573 46.597536 68.18745 45.515054 68.513539 C 44.432573 68.842989 43.340007 69.115291 42.230631 69.337166 C 41.121256 69.559041 40.005158 69.723766 38.882336 69.834704 C 37.756152 69.945641 36.629968 69.999429 35.500422 69.999429 C 34.370877 69.999429 33.241331 69.945641 32.118509 69.834704 C 30.992325 69.723766 29.876226 69.559041 28.770213 69.337166 C 27.660838 69.115291 26.564909 68.842989 25.48579 68.513539 C 24.403309 68.18745 23.340998 67.807573 22.298858 67.373908 C 21.253356 66.940243 20.234748 66.459514 19.23631 65.924997 C 18.241234 65.393841 17.273052 64.81226 16.331764 64.186975 C 15.393838 63.55833 14.486167 62.885981 13.612114 62.16993 C 12.741423 61.450517 11.904349 60.694125 11.104254 59.89403 C 10.307521 59.097297 9.547767 58.260223 8.831716 57.38617 C 8.115664 56.512116 7.443316 55.607808 6.81467 54.66652 C 6.186024 53.728593 5.607804 52.760411 5.073287 51.761974 C 4.542132 50.766898 4.058041 49.744928 3.627738 48.702788 C 3.194073 47.657286 2.814196 46.594975 2.484745 45.515855 C 2.158656 44.433374 1.882993 43.337446 1.66448 42.231432 C 1.442605 41.122057 1.277879 40.005959 1.166942 38.883136 C 1.056004 37.756953 0.998855 36.630769 0.998855 35.501223 C 0.998855 34.371677 1.056004 33.242132 1.166942 32.11931 C 1.277879 30.993126 1.442605 29.877027 1.66448 28.771014 C 1.882993 27.661639 2.158656 26.56571 2.484745 25.486591 C 2.814196 24.40411 3.194073 23.341799 3.627738 22.296297 C 4.058041 21.254157 4.542132 20.232187 5.073287 19.237111 C 5.607804 18.238673 6.186024 17.273853 6.81467 16.332565 C 7.443316 15.394639 8.115664 14.486968 8.831716 13.612915 C 9.547767 12.738862 10.307521 11.90515 11.104254 11.105055 C 11.904349 10.30496 12.741423 9.548568 13.612114 8.832517 C 14.486167 8.113104 15.393838 7.440755 16.331764 6.815471 C 17.273052 6.186825 18.241234 5.605243 19.23631 5.074088 C 20.234748 4.539571 21.253356 4.058842 22.298858 3.625177 C 23.340998 3.194874 24.403309 2.814997 25.48579 2.485546 C 26.564909 2.156095 27.660838 1.883794 28.770213 1.661919 C 29.876226 1.443406 30.992325 1.275318 32.118509 1.167743 C 33.241331 1.056805 34.370877 0.999656 35.500422 0.999656 C 36.629968 0.999656 37.756152 1.056805 38.882336 1.167743 C 40.005158 1.275318 41.121256 1.443406 42.230631 1.661919 C 43.340007 1.883794 44.432573 2.156095 45.515054 2.485546 C 46.597536 2.814997 47.659846 3.194874 48.701987 3.625177 C 49.747489 4.058842 50.766097 4.539571 51.764534 5.074088 C 52.75961 5.605243 53.727792 6.186825 54.665719 6.815471 C 55.607007 7.440755 56.514677 8.113104 57.385369 8.832517 C 58.259422 9.548568 59.096496 10.30496 59.896591 11.105055 C 60.693324 11.90515 61.453078 12.738862 62.169129 13.612915 C 62.88518 14.486968 63.557529 15.394639 64.186174 16.332565 C 64.81482 17.273853 65.39304 18.238673 65.927557 19.237111 C 66.458713 20.232187 66.942804 21.254157 67.373107 22.296297 C 67.806772 23.341799 68.186649 24.40411 68.516099 25.486591 C 68.842188 26.56571 69.117851 27.661639 69.336365 28.771014 C 69.55824 29.877027 69.722965 30.993126 69.833903 32.11931 C 69.94484 33.242132 69.998628 34.371677 69.998628 35.501223 Z M 69.998628 35.501223 " stroke="#000000" stroke-width="2" stroke-opacity="1" stroke-miterlimit="10"/></g><g clip-path="url(#5bd90b37da)"><path stroke-linecap="butt" transform="matrix(1.161972, 0, 0, 1.161972, 146.370609, 153.783741)" fill="none" stroke-linejoin="miter" d="M 35.500422 11.400888 L 35.500422 35.501223 L 23.599852 44.399757 " stroke="#000000" stroke-width="2" stroke-opacity="1" stroke-miterlimit="10"/></g><g fill="#000000" fill-opacity="1"><g transform="translate(94.29413, 188.780272)"><g><path d="M -13.320312 -11.453125 L 3.980469 -6.046875 L 6.511719 -9.894531 L -3.3125 -20.707031 L 10.671875 -16.222656 L 13.234375 -20.117188 L 1.042969 -33.285156 L 1.757812 -35.074219 L -0.0507812 -36.261719 L -4.0625 -30.167969 L -2.253906 -28.976562 L -0.875 -30.363281 L 8.910156 -20.003906 L -7.324219 -25.207031 L -10.816406 -19.902344 L -8.890625 -18.636719 L -7.054688 -20.214844 L 2.292969 -9.949219 L -11.351562 -14.441406 L -10.699219 -16.140625 L -12.507812 -17.328125 L -16.441406 -11.347656 L -14.632812 -10.160156 Z M -13.320312 -11.453125 "/></g></g></g><g fill="#000000" fill-opacity="1"><g transform="translate(112.114002, 162.98963)"><g><path d="M 13.648438 -15.300781 L 12.074219 -14.398438 L -4.585938 -22.808594 L -9.226562 -18.597656 L -7.679688 -16.890625 L -5.660156 -18.050781 L -0.0078125 -3.4375 L -1.144531 -1.882812 L 0.308594 -0.28125 L 5.691406 -5.164062 L 4.238281 -6.765625 L 2.519531 -5.730469 L 1.167969 -9.074219 L 6.410156 -13.828125 L 9.605469 -12.160156 L 8.554688 -10.679688 L 10.007812 -9.078125 L 15.101562 -13.699219 Z M 4.03125 -15.042969 L 0.167969 -11.539062 L -2.632812 -18.511719 Z M 4.03125 -15.042969 "/></g></g></g><g fill="#000000" fill-opacity="1"><g transform="translate(128.408001, 148.440229)"><g><path d="M 0.261719 -2.667969 L 1.359375 -0.804688 L 7.402344 -4.375 L 6.300781 -6.238281 L 4.574219 -5.671875 L 1.851562 -10.277344 L 4.957031 -12.113281 L 12.132812 -7.171875 L 16.023438 -9.472656 L 14.921875 -11.335938 L 13.195312 -10.765625 L 9.027344 -13.296875 L 7.289062 -13.945312 C 9.246094 -16.035156 9.507812 -18.480469 8.054688 -20.9375 C 6.089844 -24.257812 2.636719 -24.761719 -1.234375 -22.472656 L -8.804688 -18 L -7.703125 -16.136719 L -5.976562 -16.707031 L 1.589844 -3.90625 Z M 3.398438 -14.09375 L 0.582031 -12.429688 L -3.019531 -18.519531 L -0.203125 -20.183594 C 1.949219 -21.453125 3.863281 -21.265625 5.09375 -19.1875 C 6.320312 -17.109375 5.546875 -15.363281 3.398438 -14.09375 Z M 3.398438 -14.09375 "/></g></g></g><g fill="#000000" fill-opacity="1"><g transform="translate(146.211513, 137.986473)"><g><path d="M 0.789062 -2.5625 L 1.496094 -0.515625 L 10.226562 -3.53125 C 15.128906 -5.222656 17.027344 -8.488281 15.550781 -12.765625 L 13.59375 -18.429688 C 12.121094 -22.703125 8.613281 -24.105469 3.710938 -22.410156 L -5.023438 -19.398438 L -4.316406 -17.351562 L -2.511719 -17.5625 L 2.339844 -3.507812 Z M 9.414062 -5.890625 L 5.636719 -4.585938 L 0.746094 -18.746094 L 4.523438 -20.050781 C 7.328125 -21.019531 9.367188 -20.050781 10.316406 -17.296875 L 12.273438 -11.632812 C 13.222656 -8.878906 12.21875 -6.859375 9.414062 -5.890625 Z M 9.414062 -5.890625 "/></g></g></g><g fill="#000000" fill-opacity="1"><g transform="translate(167.036565, 131.352399)"><g><path d="M 1.1875 -2.402344 L 1.558594 -0.269531 L 8.472656 -1.476562 L 8.101562 -3.609375 L 6.285156 -3.6875 L 3.734375 -18.335938 L 5.414062 -19.023438 L 5.042969 -21.152344 L -1.871094 -19.949219 L -1.5 -17.816406 L 0.316406 -17.738281 L 2.867188 -3.089844 Z M 1.1875 -2.402344 "/></g></g></g><g fill="#000000" fill-opacity="1"><g transform="translate(178.460405, 129.122957)"><g><path d="M 1.542969 -2.191406 L 1.582031 -0.0273438 L 17.613281 -0.320312 L 17.523438 -5.3125 L 14.554688 -5.257812 L 14.101562 -2.753906 L 6.777344 -2.621094 L 6.660156 -9.054688 L 9.988281 -9.117188 L 10.53125 -6.851562 L 12.886719 -6.894531 L 12.757812 -13.96875 L 10.402344 -13.925781 L 9.945312 -11.613281 L 6.613281 -11.550781 L 6.503906 -17.597656 L 13.773438 -17.730469 L 14.3125 -15.550781 L 17.058594 -15.597656 L 16.972656 -20.285156 L 1.21875 -20 L 1.257812 -17.835938 L 3.039062 -17.480469 L 3.308594 -2.613281 Z M 1.542969 -2.191406 "/></g></g></g><g fill="#000000" fill-opacity="1"><g transform="translate(198.783578, 128.844789)"><g><path d="M 1.9375 -1.851562 L 1.554688 0.28125 L 8.464844 1.519531 L 8.847656 -0.609375 L 7.167969 -1.304688 L 8.113281 -6.574219 L 11.664062 -5.9375 L 13.871094 2.488281 L 18.320312 3.289062 L 18.703125 1.160156 L 17.023438 0.464844 L 15.519531 -4.175781 L 14.625 -5.800781 C 17.472656 -6.109375 19.265625 -7.785156 19.773438 -10.597656 C 20.453125 -14.394531 18.164062 -17.03125 13.742188 -17.828125 L 5.085938 -19.378906 L 4.703125 -17.25 L 6.382812 -16.554688 L 3.753906 -1.917969 Z M 11.777344 -8.457031 L 8.554688 -9.035156 L 9.804688 -15.996094 L 13.027344 -15.417969 C 15.484375 -14.976562 16.8125 -13.582031 16.386719 -11.207031 C 15.960938 -8.832031 14.234375 -8.015625 11.777344 -8.457031 Z M 11.777344 -8.457031 "/></g></g></g><g fill="#000000" fill-opacity="1"><g transform="translate(219.117445, 132.625801)"><g><path d="M 2.261719 -1.4375 L 1.472656 0.578125 L 16.402344 6.425781 L 18.222656 1.777344 L 15.460938 0.695312 L 14.082031 2.835938 L 7.265625 0.164062 L 9.613281 -5.828125 L 12.710938 -4.613281 L 12.347656 -2.3125 L 14.542969 -1.453125 L 17.125 -8.039062 L 14.929688 -8.898438 L 13.625 -6.9375 L 10.523438 -8.152344 L 12.730469 -13.78125 L 19.496094 -11.128906 L 19.164062 -8.90625 L 21.71875 -7.90625 L 23.429688 -12.269531 L 8.761719 -18.019531 L 7.96875 -16.003906 L 9.480469 -14.996094 L 4.054688 -1.152344 Z M 2.261719 -1.4375 "/></g></g></g><g fill="#000000" fill-opacity="1"><g transform="translate(238.224159, 140.682336)"><g/></g></g><g fill="#000000" fill-opacity="1"><g transform="translate(246.147301, 145.188081)"><g><path d="M 2.539062 -0.851562 L 1.289062 0.914062 L 7.019531 4.96875 L 8.269531 3.203125 L 7.042969 1.859375 L 15.636719 -10.277344 L 17.308594 -9.566406 L 18.558594 -11.332031 L 12.832031 -15.386719 L 11.582031 -13.621094 L 12.804688 -12.28125 L 4.214844 -0.144531 Z M 2.539062 -0.851562 "/></g></g></g><g fill="#000000" fill-opacity="1"><g transform="translate(255.803653, 151.470949)"><g><path d="M 2.648438 -0.402344 L 1.113281 1.121094 L 6.058594 6.101562 L 7.59375 4.578125 L 6.621094 3.042969 L 15.457031 -5.734375 L 11.925781 12.007812 L 14.367188 14.46875 L 26.730469 2.191406 L 28.257812 3.175781 L 29.792969 1.652344 L 24.847656 -3.328125 L 23.3125 -1.804688 L 24.285156 -0.269531 L 18.164062 5.808594 L 15.742188 8.683594 L 19.253906 -8.957031 L 15.285156 -12.953125 L 13.75 -11.429688 L 14.726562 -9.894531 L 4.175781 0.582031 Z M 2.648438 -0.402344 "/></g></g></g><g fill="#000000" fill-opacity="1"><g transform="translate(272.723754, 169.033755)"><g><path d="M 5.269531 8.78125 C 6.746094 11.066406 8.644531 12.679688 10.847656 13.535156 L 12.738281 12.316406 L 11.335938 10.148438 C 9.792969 9.957031 8.46875 9.027344 7.402344 7.375 C 5.609375 4.601562 6.039062 2.144531 8.695312 0.429688 L 13.589844 -2.730469 C 16.25 -4.445312 18.664062 -3.824219 20.453125 -1.050781 C 21.523438 0.605469 21.851562 2.242188 21.359375 3.679688 L 22.757812 5.847656 L 24.648438 4.628906 C 24.773438 2.269531 24.085938 -0.125 22.613281 -2.410156 C 19.679688 -6.957031 15.628906 -8.171875 11.78125 -5.6875 L 6.746094 -2.4375 C 2.898438 0.0429688 2.335938 4.234375 5.269531 8.78125 Z M 5.269531 8.78125 "/></g></g></g><g fill="#000000" fill-opacity="1"><g transform="translate(92.211062, 268.706983)"><g><path d="M 3.570312 -1.503906 L 3.570312 0 L 8.453125 0 L 8.453125 -1.503906 L 7.21875 -1.777344 L 7.21875 -12.160156 L 9.226562 -12.160156 L 9.648438 -10.421875 L 11.503906 -10.421875 L 11.503906 -13.894531 L 0.519531 -13.894531 L 0.519531 -10.421875 L 2.375 -10.421875 L 2.777344 -12.160156 L 4.804688 -12.160156 L 4.804688 -1.777344 Z M 3.570312 -1.503906 "/></g></g></g><g fill="#000000" fill-opacity="1"><g transform="translate(110.082543, 268.706983)"><g><path d="M 1.101562 -1.503906 L 1.101562 0 L 12.253906 0 L 12.253906 -3.472656 L 10.191406 -3.472656 L 9.84375 -1.738281 L 4.746094 -1.738281 L 4.746094 -6.214844 L 7.0625 -6.214844 L 7.410156 -4.632812 L 9.050781 -4.632812 L 9.050781 -9.554688 L 7.410156 -9.554688 L 7.0625 -7.953125 L 4.746094 -7.953125 L 4.746094 -12.160156 L 9.804688 -12.160156 L 10.152344 -10.632812 L 12.0625 -10.632812 L 12.0625 -13.894531 L 1.101562 -13.894531 L 1.101562 -12.390625 L 2.335938 -12.121094 L 2.335938 -1.777344 Z M 1.101562 -1.503906 "/></g></g></g><g fill="#000000" fill-opacity="1"><g transform="translate(129.285599, 268.706983)"><g><path d="M 7.121094 0.230469 C 9.011719 0.230469 10.671875 -0.269531 12.003906 -1.234375 L 12.003906 -2.796875 L 10.210938 -2.796875 C 9.515625 -1.96875 8.472656 -1.542969 7.101562 -1.542969 C 4.804688 -1.542969 3.53125 -2.722656 3.53125 -4.921875 L 3.53125 -8.972656 C 3.53125 -11.175781 4.804688 -12.351562 7.101562 -12.351562 C 8.472656 -12.351562 9.554688 -11.925781 10.210938 -11.097656 L 12.003906 -11.097656 L 12.003906 -12.660156 C 10.671875 -13.625 9.011719 -14.128906 7.121094 -14.128906 C 3.359375 -14.128906 1.121094 -12.214844 1.121094 -9.03125 L 1.121094 -4.863281 C 1.121094 -1.679688 3.359375 0.230469 7.121094 0.230469 Z M 7.121094 0.230469 "/></g></g></g><g fill="#000000" fill-opacity="1"><g transform="translate(147.871107, 268.706983)"><g><path d="M 1.101562 -1.503906 L 1.101562 0 L 5.984375 0 L 5.984375 -1.503906 L 4.746094 -1.777344 L 4.746094 -6.292969 L 10.558594 -6.292969 L 10.558594 -1.777344 L 9.320312 -1.503906 L 9.320312 0 L 14.203125 0 L 14.203125 -1.503906 L 12.96875 -1.777344 L 12.96875 -12.121094 L 14.203125 -12.390625 L 14.203125 -13.894531 L 9.320312 -13.894531 L 9.320312 -12.390625 L 10.558594 -12.121094 L 10.558594 -8.027344 L 4.746094 -8.027344 L 4.746094 -12.121094 L 5.984375 -12.390625 L 5.984375 -13.894531 L 1.101562 -13.894531 L 1.101562 -12.390625 L 2.335938 -12.121094 L 2.335938 -1.777344 Z M 1.101562 -1.503906 "/></g></g></g><g fill="#000000" fill-opacity="1"><g transform="translate(169.003971, 268.706983)"><g><path d="M 1.101562 -1.503906 L 1.101562 0 L 5.984375 0 L 5.984375 -1.503906 L 4.746094 -1.777344 L 4.746094 -10.441406 L 11.773438 0 L 14.183594 0 L 14.183594 -12.121094 L 15.421875 -12.390625 L 15.421875 -13.894531 L 10.539062 -13.894531 L 10.539062 -12.390625 L 11.773438 -12.121094 L 11.773438 -6.117188 L 12.003906 -3.511719 L 5.019531 -13.894531 L 1.101562 -13.894531 L 1.101562 -12.390625 L 2.335938 -12.121094 L 2.335938 -1.777344 Z M 1.101562 -1.503906 "/></g></g></g><g fill="#000000" fill-opacity="1"><g transform="translate(191.121039, 268.706983)"><g><path d="M 7.101562 0.230469 C 11.097656 0.230469 13.105469 -1.949219 13.105469 -4.902344 L 13.105469 -8.992188 C 13.105469 -11.945312 11.097656 -14.128906 7.101562 -14.128906 C 3.125 -14.128906 1.101562 -11.945312 1.101562 -8.992188 L 1.101562 -4.902344 C 1.101562 -1.949219 3.125 0.230469 7.101562 0.230469 Z M 7.101562 -1.542969 C 4.554688 -1.542969 3.511719 -2.953125 3.511719 -4.921875 L 3.511719 -8.972656 C 3.511719 -10.941406 4.554688 -12.351562 7.101562 -12.351562 C 9.667969 -12.351562 10.691406 -10.941406 10.691406 -8.972656 L 10.691406 -4.921875 C 10.691406 -2.953125 9.667969 -1.542969 7.101562 -1.542969 Z M 7.101562 -1.542969 "/></g></g></g><g fill="#000000" fill-opacity="1"><g transform="translate(211.192506, 268.706983)"><g><path d="M 1.101562 -1.503906 L 1.101562 0 L 11.019531 0 L 11.019531 -3.472656 L 8.957031 -3.472656 L 8.609375 -1.738281 L 4.746094 -1.738281 L 4.746094 -12.121094 L 5.984375 -12.390625 L 5.984375 -13.894531 L 1.101562 -13.894531 L 1.101562 -12.390625 L 2.335938 -12.121094 L 2.335938 -1.777344 Z M 1.101562 -1.503906 "/></g></g></g><g fill="#000000" fill-opacity="1"><g transform="translate(228.581535, 268.706983)"><g><path d="M 7.101562 0.230469 C 11.097656 0.230469 13.105469 -1.949219 13.105469 -4.902344 L 13.105469 -8.992188 C 13.105469 -11.945312 11.097656 -14.128906 7.101562 -14.128906 C 3.125 -14.128906 1.101562 -11.945312 1.101562 -8.992188 L 1.101562 -4.902344 C 1.101562 -1.949219 3.125 0.230469 7.101562 0.230469 Z M 7.101562 -1.542969 C 4.554688 -1.542969 3.511719 -2.953125 3.511719 -4.921875 L 3.511719 -8.972656 C 3.511719 -10.941406 4.554688 -12.351562 7.101562 -12.351562 C 9.667969 -12.351562 10.691406 -10.941406 10.691406 -8.972656 L 10.691406 -4.921875 C 10.691406 -2.953125 9.667969 -1.542969 7.101562 -1.542969 Z M 7.101562 -1.542969 "/></g></g></g><g fill="#000000" fill-opacity="1"><g transform="translate(248.653002, 268.706983)"><g><path d="M 6.890625 0.230469 C 9.28125 0.230469 11.058594 -0.578125 12.199219 -2.121094 L 12.199219 -5.617188 L 13.433594 -5.886719 L 13.433594 -7.390625 L 8.664062 -7.390625 L 8.664062 -5.886719 L 9.902344 -5.617188 L 9.902344 -2.664062 C 9.320312 -1.949219 8.394531 -1.542969 7.023438 -1.542969 C 4.726562 -1.542969 3.550781 -2.683594 3.550781 -4.921875 L 3.550781 -8.972656 C 3.550781 -11.175781 4.824219 -12.351562 7.121094 -12.351562 C 8.628906 -12.351562 9.648438 -11.792969 10.285156 -11.019531 L 12.082031 -11.019531 L 12.082031 -12.601562 C 10.867188 -13.472656 9.28125 -14.128906 7.140625 -14.128906 C 3.398438 -14.128906 1.140625 -12.214844 1.140625 -9.03125 L 1.140625 -4.863281 C 1.140625 -1.621094 3.242188 0.230469 6.890625 0.230469 Z M 6.890625 0.230469 "/></g></g></g><g fill="#000000" fill-opacity="1"><g transform="translate(268.473592, 268.706983)"><g><path d="M 4.710938 -1.503906 L 4.710938 0 L 9.59375 0 L 9.59375 -1.503906 L 8.355469 -1.777344 L 8.355469 -5.460938 L 12.796875 -12.121094 L 14.03125 -12.390625 L 14.03125 -13.894531 L 8.839844 -13.894531 L 8.839844 -12.390625 L 10.074219 -12.121094 L 7.140625 -7.296875 L 4.207031 -12.121094 L 5.441406 -12.390625 L 5.441406 -13.894531 L 0.269531 -13.894531 L 0.269531 -12.390625 L 1.503906 -12.121094 L 5.945312 -5.460938 L 5.945312 -1.777344 Z M 4.710938 -1.503906 "/></g></g></g><g fill="#000000" fill-opacity="1"><g transform="translate(115.423744, 233.151078)"><g><path d="M 5.4375 0 L 0.96875 0 L 0.96875 -7.75 L 5.4375 -7.75 L 5.4375 -6.40625 L 2.625 -6.40625 L 2.625 -4.703125 L 5.25 -4.703125 L 5.25 -3.359375 L 2.625 -3.359375 L 2.625 -1.359375 L 5.4375 -1.359375 Z M 5.4375 0 "/></g></g></g><g fill="#000000" fill-opacity="1"><g transform="translate(121.501255, 233.151078)"><g><path d="M 5.546875 -2.15625 C 5.546875 -1.457031 5.296875 -0.90625 4.796875 -0.5 C 4.296875 -0.09375 3.59375 0.109375 2.6875 0.109375 C 1.863281 0.109375 1.132812 -0.046875 0.5 -0.359375 L 0.5 -1.890625 C 1.019531 -1.648438 1.460938 -1.484375 1.828125 -1.390625 C 2.191406 -1.296875 2.523438 -1.25 2.828125 -1.25 C 3.179688 -1.25 3.453125 -1.316406 3.640625 -1.453125 C 3.835938 -1.597656 3.9375 -1.804688 3.9375 -2.078125 C 3.9375 -2.222656 3.894531 -2.351562 3.8125 -2.46875 C 3.726562 -2.59375 3.601562 -2.707031 3.4375 -2.8125 C 3.269531 -2.925781 2.9375 -3.101562 2.4375 -3.34375 C 1.957031 -3.570312 1.597656 -3.785156 1.359375 -3.984375 C 1.128906 -4.191406 0.941406 -4.429688 0.796875 -4.703125 C 0.660156 -4.972656 0.59375 -5.289062 0.59375 -5.65625 C 0.59375 -6.34375 0.820312 -6.878906 1.28125 -7.265625 C 1.75 -7.660156 2.394531 -7.859375 3.21875 -7.859375 C 3.613281 -7.859375 3.992188 -7.8125 4.359375 -7.71875 C 4.734375 -7.625 5.117188 -7.488281 5.515625 -7.3125 L 4.984375 -6.046875 C 4.566406 -6.210938 4.222656 -6.328125 3.953125 -6.390625 C 3.679688 -6.460938 3.414062 -6.5 3.15625 -6.5 C 2.84375 -6.5 2.601562 -6.425781 2.4375 -6.28125 C 2.269531 -6.132812 2.1875 -5.941406 2.1875 -5.703125 C 2.1875 -5.566406 2.21875 -5.441406 2.28125 -5.328125 C 2.351562 -5.222656 2.460938 -5.117188 2.609375 -5.015625 C 2.765625 -4.921875 3.113281 -4.738281 3.65625 -4.46875 C 4.382812 -4.125 4.878906 -3.773438 5.140625 -3.421875 C 5.410156 -3.078125 5.546875 -2.65625 5.546875 -2.15625 Z M 5.546875 -2.15625 "/></g></g></g><g fill="#000000" fill-opacity="1"><g transform="translate(127.478091, 233.151078)"><g><path d="M 3.96875 0 L 2.328125 0 L 2.328125 -6.390625 L 0.21875 -6.390625 L 0.21875 -7.75 L 6.078125 -7.75 L 6.078125 -6.390625 L 3.96875 -6.390625 Z M 3.96875 0 "/></g></g></g><g fill="#000000" fill-opacity="1"><g transform="translate(133.762248, 233.151078)"><g><path d="M 7.40625 -3.953125 C 7.40625 -2.671875 7.039062 -1.691406 6.3125 -1.015625 C 5.59375 -0.335938 4.546875 0 3.171875 0 L 0.96875 0 L 0.96875 -7.75 L 3.40625 -7.75 C 4.675781 -7.75 5.660156 -7.414062 6.359375 -6.75 C 7.054688 -6.082031 7.40625 -5.148438 7.40625 -3.953125 Z M 5.703125 -3.90625 C 5.703125 -5.570312 4.96875 -6.40625 3.5 -6.40625 L 2.625 -6.40625 L 2.625 -1.359375 L 3.328125 -1.359375 C 4.910156 -1.359375 5.703125 -2.207031 5.703125 -3.90625 Z M 5.703125 -3.90625 "/></g></g></g><g fill="#000000" fill-opacity="1"><g transform="translate(233.828207, 233.151078)"><g><path d="M 5.859375 0 L 0.4375 0 L 0.4375 -1.140625 L 2.375 -3.109375 C 2.957031 -3.703125 3.335938 -4.109375 3.515625 -4.328125 C 3.691406 -4.554688 3.816406 -4.769531 3.890625 -4.96875 C 3.972656 -5.164062 4.015625 -5.367188 4.015625 -5.578125 C 4.015625 -5.890625 3.925781 -6.117188 3.75 -6.265625 C 3.582031 -6.421875 3.351562 -6.5 3.0625 -6.5 C 2.757812 -6.5 2.46875 -6.425781 2.1875 -6.28125 C 1.90625 -6.144531 1.609375 -5.953125 1.296875 -5.703125 L 0.40625 -6.75 C 0.789062 -7.082031 1.109375 -7.3125 1.359375 -7.4375 C 1.609375 -7.570312 1.878906 -7.675781 2.171875 -7.75 C 2.472656 -7.820312 2.8125 -7.859375 3.1875 -7.859375 C 3.664062 -7.859375 4.085938 -7.769531 4.453125 -7.59375 C 4.828125 -7.414062 5.117188 -7.164062 5.328125 -6.84375 C 5.535156 -6.53125 5.640625 -6.171875 5.640625 -5.765625 C 5.640625 -5.410156 5.578125 -5.078125 5.453125 -4.765625 C 5.328125 -4.453125 5.128906 -4.128906 4.859375 -3.796875 C 4.597656 -3.460938 4.132812 -2.992188 3.46875 -2.390625 L 2.46875 -1.453125 L 2.46875 -1.375 L 5.859375 -1.375 Z M 5.859375 0 "/></g></g></g><g fill="#000000" fill-opacity="1"><g transform="translate(240.022287, 233.151078)"><g><path d="M 5.8125 -3.875 C 5.8125 -2.519531 5.585938 -1.515625 5.140625 -0.859375 C 4.703125 -0.210938 4.019531 0.109375 3.09375 0.109375 C 2.195312 0.109375 1.519531 -0.222656 1.0625 -0.890625 C 0.613281 -1.566406 0.390625 -2.5625 0.390625 -3.875 C 0.390625 -5.238281 0.609375 -6.242188 1.046875 -6.890625 C 1.492188 -7.546875 2.175781 -7.875 3.09375 -7.875 C 3.988281 -7.875 4.664062 -7.535156 5.125 -6.859375 C 5.582031 -6.179688 5.8125 -5.1875 5.8125 -3.875 Z M 2.015625 -3.875 C 2.015625 -2.925781 2.097656 -2.242188 2.265625 -1.828125 C 2.429688 -1.421875 2.707031 -1.21875 3.09375 -1.21875 C 3.476562 -1.21875 3.753906 -1.425781 3.921875 -1.84375 C 4.085938 -2.257812 4.171875 -2.9375 4.171875 -3.875 C 4.171875 -4.820312 4.082031 -5.503906 3.90625 -5.921875 C 3.738281 -6.335938 3.46875 -6.546875 3.09375 -6.546875 C 2.707031 -6.546875 2.429688 -6.335938 2.265625 -5.921875 C 2.097656 -5.503906 2.015625 -4.820312 2.015625 -3.875 Z M 2.015625 -3.875 "/></g></g></g><g fill="#000000" fill-opacity="1"><g transform="translate(246.216367, 233.151078)"><g><path d="M 5.859375 0 L 0.4375 0 L 0.4375 -1.140625 L 2.375 -3.109375 C 2.957031 -3.703125 3.335938 -4.109375 3.515625 -4.328125 C 3.691406 -4.554688 3.816406 -4.769531 3.890625 -4.96875 C 3.972656 -5.164062 4.015625 -5.367188 4.015625 -5.578125 C 4.015625 -5.890625 3.925781 -6.117188 3.75 -6.265625 C 3.582031 -6.421875 3.351562 -6.5 3.0625 -6.5 C 2.757812 -6.5 2.46875 -6.425781 2.1875 -6.28125 C 1.90625 -6.144531 1.609375 -5.953125 1.296875 -5.703125 L 0.40625 -6.75 C 0.789062 -7.082031 1.109375 -7.3125 1.359375 -7.4375 C 1.609375 -7.570312 1.878906 -7.675781 2.171875 -7.75 C 2.472656 -7.820312 2.8125 -7.859375 3.1875 -7.859375 C 3.664062 -7.859375 4.085938 -7.769531 4.453125 -7.59375 C 4.828125 -7.414062 5.117188 -7.164062 5.328125 -6.84375 C 5.535156 -6.53125 5.640625 -6.171875 5.640625 -5.765625 C 5.640625 -5.410156 5.578125 -5.078125 5.453125 -4.765625 C 5.328125 -4.453125 5.128906 -4.128906 4.859375 -3.796875 C 4.597656 -3.460938 4.132812 -2.992188 3.46875 -2.390625 L 2.46875 -1.453125 L 2.46875 -1.375 L 5.859375 -1.375 Z M 5.859375 0 "/></g></g></g><g fill="#000000" fill-opacity="1"><g transform="translate(252.410447, 233.151078)"><g><path d="M 5.859375 0 L 0.4375 0 L 0.4375 -1.140625 L 2.375 -3.109375 C 2.957031 -3.703125 3.335938 -4.109375 3.515625 -4.328125 C 3.691406 -4.554688 3.816406 -4.769531 3.890625 -4.96875 C 3.972656 -5.164062 4.015625 -5.367188 4.015625 -5.578125 C 4.015625 -5.890625 3.925781 -6.117188 3.75 -6.265625 C 3.582031 -6.421875 3.351562 -6.5 3.0625 -6.5 C 2.757812 -6.5 2.46875 -6.425781 2.1875 -6.28125 C 1.90625 -6.144531 1.609375 -5.953125 1.296875 -5.703125 L 0.40625 -6.75 C 0.789062 -7.082031 1.109375 -7.3125 1.359375 -7.4375 C 1.609375 -7.570312 1.878906 -7.675781 2.171875 -7.75 C 2.472656 -7.820312 2.8125 -7.859375 3.1875 -7.859375 C 3.664062 -7.859375 4.085938 -7.769531 4.453125 -7.59375 C 4.828125 -7.414062 5.117188 -7.164062 5.328125 -6.84375 C 5.535156 -6.53125 5.640625 -6.171875 5.640625 -5.765625 C 5.640625 -5.410156 5.578125 -5.078125 5.453125 -4.765625 C 5.328125 -4.453125 5.128906 -4.128906 4.859375 -3.796875 C 4.597656 -3.460938 4.132812 -2.992188 3.46875 -2.390625 L 2.46875 -1.453125 L 2.46875 -1.375 L 5.859375 -1.375 Z M 5.859375 0 "/></g></g></g></svg>