<svg xmlns="http://www.w3.org/2000/svg" xmlns:xlink="http://www.w3.org/1999/xlink" width="500" zoomAndPan="magnify" viewBox="0 0 375 374.999991" height="500" preserveAspectRatio="xMidYMid meet" version="1.0"><defs><clipPath id="8521ca9290"><path d="M 23.609375 123.070312 L 122.609375 123.070312 L 122.609375 273 L 23.609375 273 Z M 23.609375 123.070312 " clip-rule="nonzero"/></clipPath></defs><g clip-path="url(#8521ca9290)"><path fill="#231f20" d="M 106.019531 261.34375 L 90.226562 198.074219 L 106.019531 134.800781 L 40.199219 134.800781 L 55.988281 198.074219 L 40.199219 261.351562 L 106.019531 261.351562 Z M 101.640625 257.921875 L 75.292969 257.921875 L 88.46875 205.121094 Z M 73.105469 252.585938 L 59.933594 199.785156 L 86.289062 199.785156 Z M 101.640625 138.21875 L 88.46875 191.019531 L 75.292969 138.21875 Z M 86.28125 196.355469 L 59.933594 196.355469 L 73.113281 143.554688 Z M 44.566406 138.21875 L 70.914062 138.21875 L 57.746094 191.019531 Z M 57.746094 205.121094 L 70.921875 257.921875 L 44.566406 257.921875 Z M 23.609375 123.140625 L 122.609375 123.140625 L 122.609375 126.558594 L 23.609375 126.558594 Z M 23.609375 269.582031 L 122.609375 269.582031 L 122.609375 273 L 23.609375 273 Z M 23.609375 269.582031 " fill-opacity="1" fill-rule="nonzero"/></g></svg>