<svg xmlns="http://www.w3.org/2000/svg" xmlns:xlink="http://www.w3.org/1999/xlink" width="500" zoomAndPan="magnify" viewBox="0 0 375 374.999991" height="500" preserveAspectRatio="xMidYMid meet" version="1.0"><defs><clipPath id="ad733457dd"><path d="M 37.5 37.5 L 142.5 37.5 L 142.5 187.5 L 37.5 187.5 Z M 37.5 37.5 " clip-rule="nonzero"/></clipPath></defs><g clip-path="url(#ad733457dd)"><path fill="#a6a6a6" d="M 130.03125 177.757812 L 142.6875 177.757812 L 142.6875 187.492188 L 37.5 187.492188 L 37.5 177.757812 L 50.15625 177.757812 L 50.15625 128.015625 L 90.09375 88.078125 L 104.179688 102.164062 L 97.292969 109.046875 L 90.09375 101.847656 L 59.90625 132.046875 L 59.90625 177.757812 L 120.292969 177.757812 L 120.292969 132.046875 L 111.070312 122.828125 L 117.957031 115.941406 L 130.03125 128.015625 Z M 37.5 37.507812 L 37.5 47.242188 L 50.15625 47.242188 L 50.15625 96.984375 L 62.230469 109.058594 L 69.117188 102.171875 L 59.90625 92.953125 L 59.90625 47.242188 L 120.292969 47.242188 L 120.292969 92.953125 L 90.09375 123.140625 L 82.894531 115.941406 L 76.007812 122.828125 L 90.09375 136.910156 L 130.03125 96.984375 L 130.03125 47.242188 L 142.6875 47.242188 L 142.6875 37.507812 Z M 37.5 37.507812 " fill-opacity="1" fill-rule="nonzero"/></g></svg>