<svg xmlns="http://www.w3.org/2000/svg" xmlns:xlink="http://www.w3.org/1999/xlink" width="500" zoomAndPan="magnify" viewBox="0 0 375 374.999991" height="500" preserveAspectRatio="xMidYMid meet" version="1.0"><defs><g/><clipPath id="84e5596914"><path d="M 182 276.160156 L 241.214844 276.160156 L 241.214844 325 L 182 325 Z M 182 276.160156 " clip-rule="nonzero"/></clipPath><clipPath id="54d30a3e45"><path d="M 171.789062 290 L 236 290 L 236 345.585938 L 171.789062 345.585938 Z M 171.789062 290 " clip-rule="nonzero"/></clipPath></defs><path fill="#60bd81" d="M 70.242188 76.785156 L 57.027344 53.382812 C 53.960938 47.957031 45.609375 52.828125 48.679688 58.261719 L 61.894531 81.664062 C 64.957031 87.089844 73.308594 82.222656 70.242188 76.785156 Z M 70.242188 76.785156 " fill-opacity="1" fill-rule="nonzero"/><path fill="#60bd81" d="M 160.4375 55.550781 L 160.4375 28.328125 C 160.4375 22.09375 150.773438 22.09375 150.773438 28.328125 L 150.773438 55.550781 C 150.773438 61.785156 160.4375 61.785156 160.4375 55.550781 Z M 160.4375 55.550781 " fill-opacity="1" fill-rule="nonzero"/><path fill="#60bd81" d="M 249.484375 82.433594 L 262.527344 58.261719 C 265.484375 52.777344 257.140625 47.898438 254.179688 53.382812 L 241.136719 77.554688 C 238.175781 83.039062 246.523438 87.921875 249.484375 82.433594 Z M 249.484375 82.433594 " fill-opacity="1" fill-rule="nonzero"/><path fill="#60bd81" d="M 312.117188 149.503906 L 336.042969 135.25 C 341.390625 132.0625 336.53125 123.703125 331.164062 126.902344 L 307.238281 141.160156 C 301.894531 144.34375 306.75 152.703125 312.117188 149.503906 Z M 312.117188 149.503906 " fill-opacity="1" fill-rule="nonzero"/><path fill="#60bd81" d="M 333.460938 238.664062 L 361.105469 238.664062 C 367.335938 238.664062 367.335938 229 361.105469 229 L 333.460938 229 C 327.226562 229 327.226562 238.664062 333.460938 238.664062 Z M 333.460938 238.664062 " fill-opacity="1" fill-rule="nonzero"/><path fill="#60bd81" d="M 307.59375 327.28125 L 331.171875 340.746094 C 336.589844 343.84375 341.460938 335.492188 336.046875 332.402344 L 312.472656 318.9375 C 307.050781 315.839844 302.183594 324.191406 307.59375 327.28125 Z M 307.59375 327.28125 " fill-opacity="1" fill-rule="nonzero"/><path fill="#60bd81" d="M 156.71875 221.496094 L 156.039062 221.496094 C 149.453125 221.496094 143.957031 226.992188 143.957031 233.582031 C 143.957031 240.167969 149.453125 245.664062 156.039062 245.664062 L 156.71875 245.664062 C 163.304688 245.664062 168.800781 240.167969 168.800781 233.582031 C 168.800781 226.992188 163.304688 221.496094 156.71875 221.496094 Z M 156.71875 221.496094 " fill-opacity="1" fill-rule="nonzero"/><path fill="#60bd81" d="M 158.371094 234.296875 L 158.371094 125.726562 C 158.371094 122.609375 153.539062 122.609375 153.539062 125.726562 L 153.539062 234.296875 C 153.539062 237.410156 158.371094 237.410156 158.371094 234.296875 Z M 158.371094 234.296875 " fill-opacity="1" fill-rule="nonzero"/><path fill="#60bd81" d="M 157.265625 232.359375 L 85.679688 108.488281 L 79.953125 98.578125 C 78.394531 95.882812 74.21875 98.316406 75.78125 101.015625 L 147.367188 224.886719 L 153.09375 234.796875 C 154.652344 237.492188 158.828125 235.0625 157.265625 232.359375 Z M 157.265625 232.359375 " fill-opacity="1" fill-rule="nonzero"/><g fill="#eeba2b" fill-opacity="1"><g transform="translate(7.646139, 330.04806)"><g><path d="M 50.308594 -38.601562 C 50.914062 -40.644531 51.078125 -41.746094 52.296875 -44.175781 L 50.695312 -44.175781 C 50.472656 -41.804688 50.03125 -40.644531 49.421875 -38.542969 L 39.042969 -1.878906 L 30.539062 -32.082031 L 32.359375 -38.601562 C 32.96875 -40.644531 33.132812 -41.746094 34.347656 -44.175781 L 32.691406 -44.175781 C 32.527344 -41.804688 32.027344 -40.644531 31.476562 -38.542969 L 30.097656 -33.628906 L 28.769531 -38.269531 C 28.109375 -40.644531 27.722656 -41.691406 27.609375 -44.175781 L 20.707031 -44.175781 C 21.8125 -42.023438 22.308594 -40.808594 23.027344 -38.269531 L 27.222656 -23.414062 L 21.09375 -1.878906 L 10.824219 -38.269531 C 10.160156 -40.644531 9.773438 -41.691406 9.664062 -44.175781 L 2.761719 -44.175781 C 3.867188 -42.023438 4.363281 -40.808594 5.023438 -38.269531 L 15.847656 0 L 22.363281 0 C 21.976562 -1.214844 21.976562 -1.824219 22.253906 -2.980469 L 27.609375 -21.921875 L 33.796875 0 L 40.3125 0 C 39.925781 -1.214844 39.925781 -1.824219 40.257812 -2.980469 Z M 50.308594 -38.601562 "/></g></g></g><g fill="#f8cf40" fill-opacity="1"><g transform="translate(214.195208, 328.419454)"><g/></g></g><g fill="#f8cf40" fill-opacity="1"><g transform="translate(223.64127, 328.419454)"><g/></g></g><g fill="#f8cf40" fill-opacity="1"><g transform="translate(233.087333, 328.419454)"><g/></g></g><g fill="#f8cf40" fill-opacity="1"><g transform="translate(242.533396, 328.419454)"><g/></g></g><g fill="#f8cf40" fill-opacity="1"><g transform="translate(251.983302, 328.419454)"><g><path d="M 1.980469 -26.425781 C 2.179688 -23.652344 2.246094 -22.332031 2.246094 -19.917969 L 2.246094 -11.230469 C 2.246094 -1.816406 6.144531 0.660156 12.289062 0.660156 C 18.167969 0.660156 21.074219 -2.578125 21.074219 -11.230469 L 21.074219 -19.917969 C 21.074219 -22.332031 21.109375 -23.652344 21.339844 -26.425781 L 20.28125 -26.425781 C 20.515625 -23.652344 20.546875 -22.332031 20.546875 -19.917969 L 20.546875 -11.230469 C 20.546875 -3.039062 17.90625 -0.164062 12.851562 -0.164062 C 7.632812 -0.164062 5.484375 -3.371094 5.484375 -11.230469 L 5.484375 -19.917969 C 5.484375 -22.332031 5.550781 -23.652344 5.746094 -26.425781 Z M 1.980469 -26.425781 "/></g></g></g><g fill="#f8cf40" fill-opacity="1"><g transform="translate(275.301209, 328.419454)"><g><path d="M 21.273438 -26.425781 L 0.660156 -26.425781 L 2.113281 -24.578125 C 4.957031 -25.699219 7.5 -25.898438 8.953125 -25.898438 L 9.347656 -25.898438 L 9.347656 -6.507812 C 9.347656 -4.097656 9.28125 -2.773438 9.085938 0 L 12.851562 0 C 12.652344 -2.773438 12.585938 -4.097656 12.585938 -6.507812 L 12.585938 -25.898438 L 12.984375 -25.898438 C 14.4375 -25.898438 16.980469 -25.699219 19.820312 -24.578125 Z M 21.273438 -26.425781 "/></g></g></g><g clip-path="url(#84e5596914)"><path fill="#f8cf40" d="M 185.265625 287.316406 C 184.964844 287.585938 184.570312 287.726562 184.167969 287.703125 C 183.765625 287.683594 183.386719 287.503906 183.117188 287.203125 C 182.847656 286.902344 182.707031 286.507812 182.730469 286.105469 C 182.75 285.703125 182.929688 285.324219 183.230469 285.054688 C 186.402344 282.199219 190.074219 279.957031 194.066406 278.441406 C 198.019531 276.929688 202.21875 276.15625 206.453125 276.15625 C 209.421875 276.15625 212.378906 276.539062 215.25 277.296875 C 218.21875 278.082031 221.066406 279.261719 223.722656 280.796875 C 226.433594 282.359375 228.917969 284.28125 231.113281 286.507812 C 233.230469 288.664062 235.058594 291.09375 236.542969 293.726562 C 238.007812 296.324219 239.136719 299.097656 239.890625 301.984375 C 240.652344 304.867188 241.035156 307.839844 241.035156 310.820312 C 241.035156 315.210938 240.195312 319.5625 238.5625 323.640625 C 238.414062 324.011719 238.121094 324.3125 237.75 324.472656 C 237.378906 324.628906 236.960938 324.632812 236.585938 324.484375 C 236.210938 324.335938 235.910156 324.042969 235.753906 323.671875 C 235.59375 323.300781 235.589844 322.882812 235.738281 322.507812 C 237.230469 318.792969 237.996094 314.824219 237.996094 310.820312 C 237.996094 308.101562 237.644531 305.390625 236.949219 302.757812 C 236.257812 300.125 235.234375 297.589844 233.894531 295.222656 C 232.542969 292.820312 230.875 290.609375 228.945312 288.640625 C 226.941406 286.605469 224.675781 284.855469 222.203125 283.429688 C 219.777344 282.027344 217.179688 280.957031 214.472656 280.238281 C 211.855469 279.546875 209.160156 279.195312 206.453125 279.199219 C 202.589844 279.199219 198.757812 279.90625 195.148438 281.28125 C 191.507812 282.667969 188.160156 284.710938 185.265625 287.316406 Z M 185.265625 287.316406 " fill-opacity="1" fill-rule="nonzero"/></g><g clip-path="url(#54d30a3e45)"><path fill="#f8cf40" d="M 232.335938 328.820312 C 232.566406 328.488281 232.921875 328.265625 233.316406 328.191406 C 233.714844 328.121094 234.121094 328.210938 234.453125 328.441406 C 234.785156 328.671875 235.011719 329.027344 235.082031 329.421875 C 235.152344 329.820312 235.0625 330.226562 234.832031 330.558594 C 231.691406 335.0625 227.53125 338.757812 222.6875 341.347656 C 220.234375 342.65625 217.628906 343.664062 214.933594 344.347656 C 212.148438 345.054688 209.285156 345.410156 206.414062 345.40625 C 204.070312 345.410156 201.734375 345.171875 199.4375 344.703125 C 197.210938 344.246094 195.03125 343.570312 192.9375 342.683594 C 188.828125 340.941406 185.089844 338.417969 181.929688 335.261719 C 178.773438 332.105469 176.25 328.367188 174.507812 324.253906 C 173.621094 322.160156 172.945312 319.980469 172.488281 317.753906 C 172.019531 315.460938 171.785156 313.121094 171.785156 310.78125 C 171.78125 307.207031 172.332031 303.65625 173.417969 300.253906 C 174.46875 296.964844 176.003906 293.855469 177.976562 291.023438 C 178.207031 290.691406 178.5625 290.46875 178.957031 290.394531 C 179.355469 290.324219 179.765625 290.414062 180.09375 290.644531 C 180.425781 290.875 180.652344 291.230469 180.722656 291.625 C 180.792969 292.023438 180.703125 292.433594 180.472656 292.761719 C 178.675781 295.34375 177.273438 298.179688 176.316406 301.175781 C 175.324219 304.28125 174.824219 307.519531 174.828125 310.78125 C 174.824219 312.917969 175.042969 315.050781 175.46875 317.144531 C 175.882812 319.175781 176.503906 321.160156 177.308594 323.066406 C 178.898438 326.820312 181.199219 330.230469 184.082031 333.109375 C 186.964844 335.992188 190.371094 338.292969 194.125 339.882812 C 196.035156 340.691406 198.019531 341.308594 200.046875 341.726562 C 202.144531 342.152344 204.277344 342.367188 206.414062 342.367188 C 209.035156 342.367188 211.644531 342.042969 214.1875 341.402344 C 216.644531 340.777344 219.015625 339.859375 221.253906 338.664062 C 225.671875 336.304688 229.472656 332.929688 232.335938 328.820312 Z M 232.335938 328.820312 " fill-opacity="1" fill-rule="nonzero"/></g><path fill="#f8cf40" d="M 204.890625 286.871094 C 204.890625 286.46875 205.050781 286.082031 205.335938 285.796875 C 205.621094 285.511719 206.007812 285.351562 206.414062 285.351562 C 206.816406 285.351562 207.203125 285.511719 207.488281 285.796875 C 207.773438 286.082031 207.933594 286.46875 207.933594 286.871094 L 207.933594 313.042969 L 191.972656 322.328125 C 191.625 322.527344 191.210938 322.585938 190.820312 322.480469 C 190.429688 322.378906 190.097656 322.125 189.894531 321.777344 C 189.691406 321.429688 189.636719 321.015625 189.738281 320.625 C 189.839844 320.234375 190.09375 319.902344 190.445312 319.699219 L 204.890625 311.292969 Z M 204.890625 286.871094 " fill-opacity="1" fill-rule="nonzero"/><g fill="#eeba2b" fill-opacity="1"><g transform="translate(59.426136, 325.086575)"><g><path d="M 21.070312 -3.886719 L 13.988281 -29.066406 L 9.699219 -29.066406 C 9.953125 -28.265625 9.953125 -27.867188 9.773438 -27.101562 L 3.125 -3.667969 C 2.726562 -2.324219 2.617188 -1.597656 1.816406 0 L 2.871094 0 C 3.015625 -1.5625 3.304688 -2.324219 3.707031 -3.707031 L 5.667969 -10.574219 L 15.40625 -10.574219 L 17.292969 -3.886719 C 17.730469 -2.324219 17.984375 -1.636719 18.054688 0 L 22.597656 0 C 21.871094 -1.417969 21.542969 -2.214844 21.070312 -3.886719 Z M 5.8125 -11.152344 L 10.535156 -27.828125 L 15.257812 -11.152344 Z M 5.8125 -11.152344 "/></g></g></g><g fill="#eeba2b" fill-opacity="1"><g transform="translate(83.836089, 325.086575)"><g><path d="M 23.398438 -29.066406 L 0.726562 -29.066406 L 2.324219 -27.03125 C 5.449219 -28.265625 8.246094 -28.484375 9.84375 -28.484375 L 10.28125 -28.484375 L 10.28125 -7.15625 C 10.28125 -4.503906 10.210938 -3.050781 9.992188 0 L 14.132812 0 C 13.914062 -3.050781 13.84375 -4.503906 13.84375 -7.15625 L 13.84375 -28.484375 L 14.277344 -28.484375 C 15.875 -28.484375 18.675781 -28.265625 21.796875 -27.03125 Z M 23.398438 -29.066406 "/></g></g></g><g fill="#eeba2b" fill-opacity="1"><g transform="translate(107.955454, 325.086575)"><g><path d="M 29.320312 -12.097656 C 27.71875 -4.976562 23.796875 -0.363281 17.4375 -0.363281 C 9.664062 -0.363281 6.105469 -7.195312 6.105469 -15.113281 C 6.105469 -22.886719 10.136719 -29.210938 16.496094 -29.210938 C 21.109375 -29.210938 23.613281 -25.503906 24.742188 -20.890625 L 28.375 -21.871094 C 25.902344 -26.847656 22.125 -29.792969 16.496094 -29.792969 C 8.5 -29.792969 2.179688 -23.722656 2.179688 -14.894531 C 2.179688 -6.066406 7.484375 0.726562 16.53125 0.726562 C 24.015625 0.726562 28.15625 -4.359375 29.828125 -12.097656 Z M 29.320312 -12.097656 "/></g></g></g><g fill="#eeba2b" fill-opacity="1"><g transform="translate(139.230705, 325.086575)"><g><path d="M 23.25 -21.90625 C 23.25 -24.558594 23.289062 -26.011719 23.542969 -29.066406 L 19.402344 -29.066406 C 19.617188 -26.011719 19.691406 -24.558594 19.691406 -21.90625 L 19.691406 -14.824219 L 6.394531 -14.824219 L 6.394531 -21.90625 C 6.394531 -24.558594 6.46875 -26.011719 6.683594 -29.066406 L 2.542969 -29.066406 C 2.761719 -26.011719 2.832031 -24.558594 2.832031 -21.90625 L 2.832031 -7.15625 C 2.832031 -4.503906 2.761719 -3.050781 2.542969 0 L 6.683594 0 C 6.46875 -3.050781 6.394531 -4.503906 6.394531 -7.15625 L 6.394531 -14.242188 L 19.691406 -14.242188 L 19.691406 -7.15625 C 19.691406 -4.503906 19.617188 -3.050781 19.402344 0 L 23.542969 0 C 23.289062 -3.050781 23.25 -4.503906 23.25 -7.15625 Z M 23.25 -21.90625 "/></g></g></g></svg>