<svg xmlns="http://www.w3.org/2000/svg" xmlns:xlink="http://www.w3.org/1999/xlink" width="500" zoomAndPan="magnify" viewBox="0 0 375 374.999991" height="500" preserveAspectRatio="xMidYMid meet" version="1.0"><defs><g/><clipPath id="a8a58ec146"><path d="M 185 226.03125 L 210.84375 226.03125 L 210.84375 248 L 185 248 Z M 185 226.03125 " clip-rule="nonzero"/></clipPath><clipPath id="bc5320bf4f"><path d="M 180.671875 232 L 209 232 L 209 256.207031 L 180.671875 256.207031 Z M 180.671875 232 " clip-rule="nonzero"/></clipPath></defs><path fill="#60bd81" d="M 136.535156 139.382812 L 130.792969 129.210938 C 129.460938 126.851562 125.832031 128.96875 127.164062 131.332031 L 132.910156 141.5 C 134.238281 143.859375 137.871094 141.742188 136.535156 139.382812 Z M 136.535156 139.382812 " fill-opacity="1" fill-rule="nonzero"/><path fill="#60bd81" d="M 175.738281 130.152344 L 175.738281 118.320312 C 175.738281 115.613281 171.535156 115.613281 171.535156 118.320312 L 171.535156 130.152344 C 171.535156 132.863281 175.738281 132.863281 175.738281 130.152344 Z M 175.738281 130.152344 " fill-opacity="1" fill-rule="nonzero"/><path fill="#60bd81" d="M 214.4375 141.835938 L 220.105469 131.332031 C 221.390625 128.945312 217.765625 126.824219 216.476562 129.210938 L 210.808594 139.714844 C 209.523438 142.101562 213.148438 144.222656 214.4375 141.835938 Z M 214.4375 141.835938 " fill-opacity="1" fill-rule="nonzero"/><path fill="#60bd81" d="M 241.65625 170.984375 L 252.054688 164.789062 C 254.378906 163.40625 252.269531 159.773438 249.933594 161.164062 L 239.539062 167.359375 C 237.214844 168.742188 239.324219 172.375 241.65625 170.984375 Z M 241.65625 170.984375 " fill-opacity="1" fill-rule="nonzero"/><path fill="#60bd81" d="M 250.933594 209.734375 L 262.949219 209.734375 C 265.65625 209.734375 265.65625 205.535156 262.949219 205.535156 L 250.933594 205.535156 C 248.222656 205.535156 248.222656 209.734375 250.933594 209.734375 Z M 250.933594 209.734375 " fill-opacity="1" fill-rule="nonzero"/><path fill="#60bd81" d="M 239.691406 248.25 L 249.9375 254.101562 C 252.292969 255.445312 254.410156 251.816406 252.058594 250.472656 L 241.8125 244.621094 C 239.457031 243.277344 237.339844 246.90625 239.691406 248.25 Z M 239.691406 248.25 " fill-opacity="1" fill-rule="nonzero"/><path fill="#60bd81" d="M 174.121094 202.273438 L 173.824219 202.273438 C 170.960938 202.273438 168.574219 204.664062 168.574219 207.527344 C 168.574219 210.386719 170.960938 212.777344 173.824219 212.777344 L 174.121094 212.777344 C 176.980469 212.777344 179.371094 210.386719 179.371094 207.527344 C 179.371094 204.664062 176.980469 202.273438 174.121094 202.273438 Z M 174.121094 202.273438 " fill-opacity="1" fill-rule="nonzero"/><path fill="#60bd81" d="M 174.839844 207.835938 L 174.839844 160.652344 C 174.839844 159.296875 172.738281 159.296875 172.738281 160.652344 L 172.738281 207.835938 C 172.738281 209.191406 174.839844 209.191406 174.839844 207.835938 Z M 174.839844 207.835938 " fill-opacity="1" fill-rule="nonzero"/><path fill="#60bd81" d="M 174.359375 206.996094 L 143.246094 153.160156 L 140.757812 148.851562 C 140.078125 147.679688 138.265625 148.738281 138.945312 149.914062 L 170.054688 203.746094 L 172.546875 208.054688 C 173.222656 209.226562 175.039062 208.167969 174.359375 206.996094 Z M 174.359375 206.996094 " fill-opacity="1" fill-rule="nonzero"/><g fill="#eeba2b" fill-opacity="1"><g transform="translate(109.332492, 249.453822)"><g><path d="M 21.863281 -16.777344 C 22.128906 -17.664062 22.199219 -18.144531 22.726562 -19.199219 L 22.03125 -19.199219 C 21.9375 -18.167969 21.746094 -17.664062 21.480469 -16.753906 L 16.96875 -0.816406 L 13.273438 -13.945312 L 14.0625 -16.777344 C 14.328125 -17.664062 14.398438 -18.144531 14.929688 -19.199219 L 14.207031 -19.199219 C 14.136719 -18.167969 13.921875 -17.664062 13.679688 -16.753906 L 13.082031 -14.617188 L 12.503906 -16.632812 C 12.214844 -17.664062 12.046875 -18.121094 12 -19.199219 L 9 -19.199219 C 9.480469 -18.265625 9.695312 -17.734375 10.007812 -16.632812 L 11.832031 -10.175781 L 9.167969 -0.816406 L 4.703125 -16.632812 C 4.417969 -17.664062 4.25 -18.121094 4.199219 -19.199219 L 1.199219 -19.199219 C 1.679688 -18.265625 1.894531 -17.734375 2.183594 -16.632812 L 6.886719 0 L 9.71875 0 C 9.550781 -0.527344 9.550781 -0.792969 9.671875 -1.296875 L 12 -9.527344 L 14.6875 0 L 17.519531 0 C 17.351562 -0.527344 17.351562 -0.792969 17.496094 -1.296875 Z M 21.863281 -16.777344 "/></g></g></g><g fill="#f8cf40" fill-opacity="1"><g transform="translate(199.102169, 248.746018)"><g/></g></g><g fill="#f8cf40" fill-opacity="1"><g transform="translate(203.207586, 248.746018)"><g/></g></g><g fill="#f8cf40" fill-opacity="1"><g transform="translate(207.313004, 248.746018)"><g/></g></g><g fill="#f8cf40" fill-opacity="1"><g transform="translate(211.418422, 248.746018)"><g/></g></g><g fill="#f8cf40" fill-opacity="1"><g transform="translate(215.52551, 248.746018)"><g><path d="M 0.863281 -11.484375 C 0.949219 -10.28125 0.976562 -9.707031 0.976562 -8.65625 L 0.976562 -4.882812 C 0.976562 -0.789062 2.671875 0.289062 5.339844 0.289062 C 7.894531 0.289062 9.160156 -1.121094 9.160156 -4.882812 L 9.160156 -8.65625 C 9.160156 -9.707031 9.175781 -10.28125 9.273438 -11.484375 L 8.816406 -11.484375 C 8.914062 -10.28125 8.929688 -9.707031 8.929688 -8.65625 L 8.929688 -4.882812 C 8.929688 -1.320312 7.78125 -0.0703125 5.585938 -0.0703125 C 3.316406 -0.0703125 2.382812 -1.464844 2.382812 -4.882812 L 2.382812 -8.65625 C 2.382812 -9.707031 2.410156 -10.28125 2.5 -11.484375 Z M 0.863281 -11.484375 "/></g></g></g><g fill="#f8cf40" fill-opacity="1"><g transform="translate(225.659864, 248.746018)"><g><path d="M 9.246094 -11.484375 L 0.289062 -11.484375 L 0.917969 -10.683594 C 2.152344 -11.167969 3.257812 -11.257812 3.890625 -11.257812 L 4.0625 -11.257812 L 4.0625 -2.828125 C 4.0625 -1.78125 4.035156 -1.207031 3.949219 0 L 5.585938 0 C 5.5 -1.207031 5.46875 -1.78125 5.46875 -2.828125 L 5.46875 -11.257812 L 5.640625 -11.257812 C 6.273438 -11.257812 7.378906 -11.167969 8.613281 -10.683594 Z M 9.246094 -11.484375 "/></g></g></g><g clip-path="url(#a8a58ec146)"><path fill="#f8cf40" d="M 186.527344 230.882812 C 186.398438 231 186.226562 231.058594 186.050781 231.050781 C 185.878906 231.042969 185.710938 230.964844 185.59375 230.832031 C 185.476562 230.703125 185.417969 230.53125 185.425781 230.355469 C 185.4375 230.179688 185.515625 230.015625 185.644531 229.898438 C 187.023438 228.660156 188.621094 227.683594 190.351562 227.023438 C 192.074219 226.367188 193.898438 226.03125 195.738281 226.03125 C 197.027344 226.03125 198.3125 226.199219 199.558594 226.527344 C 200.851562 226.867188 202.089844 227.378906 203.242188 228.046875 C 204.421875 228.726562 205.5 229.5625 206.453125 230.53125 C 207.375 231.46875 208.167969 232.523438 208.816406 233.667969 C 209.453125 234.796875 209.941406 236.003906 210.269531 237.257812 C 210.601562 238.511719 210.765625 239.800781 210.765625 241.097656 C 210.769531 243.003906 210.402344 244.898438 209.691406 246.667969 C 209.628906 246.832031 209.5 246.960938 209.339844 247.03125 C 209.179688 247.097656 208.996094 247.101562 208.832031 247.035156 C 208.671875 246.96875 208.539062 246.84375 208.472656 246.683594 C 208.402344 246.519531 208.402344 246.339844 208.464844 246.175781 C 209.113281 244.5625 209.445312 242.835938 209.445312 241.097656 C 209.445312 239.914062 209.292969 238.738281 208.992188 237.59375 C 208.691406 236.449219 208.246094 235.347656 207.664062 234.316406 C 207.074219 233.273438 206.351562 232.3125 205.511719 231.457031 C 204.640625 230.574219 203.65625 229.8125 202.582031 229.191406 C 201.527344 228.582031 200.398438 228.117188 199.222656 227.804688 C 198.085938 227.503906 196.914062 227.351562 195.738281 227.355469 C 194.058594 227.355469 192.394531 227.660156 190.824219 228.257812 C 189.242188 228.859375 187.785156 229.75 186.527344 230.882812 Z M 186.527344 230.882812 " fill-opacity="1" fill-rule="nonzero"/></g><g clip-path="url(#bc5320bf4f)"><path fill="#f8cf40" d="M 206.988281 248.921875 C 207.085938 248.777344 207.242188 248.679688 207.414062 248.648438 C 207.585938 248.617188 207.761719 248.65625 207.90625 248.757812 C 208.050781 248.855469 208.148438 249.007812 208.179688 249.183594 C 208.210938 249.355469 208.171875 249.53125 208.070312 249.675781 C 206.707031 251.632812 204.898438 253.238281 202.792969 254.363281 C 201.726562 254.933594 200.59375 255.371094 199.421875 255.667969 C 198.210938 255.976562 196.96875 256.128906 195.71875 256.128906 C 194.703125 256.128906 193.6875 256.027344 192.6875 255.824219 C 191.71875 255.625 190.773438 255.332031 189.863281 254.945312 C 188.078125 254.1875 186.453125 253.09375 185.078125 251.71875 C 183.707031 250.347656 182.613281 248.722656 181.855469 246.9375 C 181.46875 246.027344 181.175781 245.078125 180.976562 244.109375 C 180.773438 243.113281 180.667969 242.097656 180.671875 241.078125 C 180.667969 239.527344 180.910156 237.984375 181.378906 236.503906 C 181.835938 235.074219 182.503906 233.722656 183.363281 232.492188 C 183.460938 232.347656 183.613281 232.25 183.789062 232.21875 C 183.960938 232.191406 184.136719 232.230469 184.28125 232.328125 C 184.425781 232.429688 184.523438 232.582031 184.554688 232.753906 C 184.585938 232.925781 184.546875 233.105469 184.445312 233.25 C 183.664062 234.371094 183.054688 235.601562 182.640625 236.90625 C 182.207031 238.253906 181.992188 239.664062 181.992188 241.078125 C 181.992188 242.007812 182.085938 242.933594 182.269531 243.84375 C 182.453125 244.726562 182.71875 245.589844 183.070312 246.421875 C 183.761719 248.050781 184.761719 249.53125 186.015625 250.785156 C 187.265625 252.039062 188.75 253.035156 190.378906 253.726562 C 191.207031 254.078125 192.070312 254.347656 192.953125 254.527344 C 193.863281 254.714844 194.789062 254.808594 195.71875 254.808594 C 196.859375 254.808594 197.996094 254.667969 199.097656 254.386719 C 200.167969 254.117188 201.199219 253.71875 202.171875 253.199219 C 204.089844 252.171875 205.742188 250.707031 206.988281 248.921875 Z M 206.988281 248.921875 " fill-opacity="1" fill-rule="nonzero"/></g><path fill="#f8cf40" d="M 195.058594 230.6875 C 195.058594 230.511719 195.128906 230.34375 195.253906 230.222656 C 195.375 230.097656 195.542969 230.027344 195.71875 230.027344 C 195.894531 230.027344 196.0625 230.097656 196.1875 230.222656 C 196.3125 230.34375 196.378906 230.511719 196.378906 230.6875 L 196.378906 242.0625 L 189.445312 246.097656 C 189.292969 246.1875 189.113281 246.210938 188.941406 246.164062 C 188.773438 246.121094 188.628906 246.011719 188.539062 245.859375 C 188.453125 245.707031 188.429688 245.527344 188.472656 245.359375 C 188.515625 245.1875 188.628906 245.042969 188.777344 244.957031 L 195.058594 241.300781 Z M 195.058594 230.6875 " fill-opacity="1" fill-rule="nonzero"/><g fill="#eeba2b" fill-opacity="1"><g transform="translate(131.83694, 247.297473)"><g><path d="M 9.160156 -1.691406 L 6.078125 -12.632812 L 4.214844 -12.632812 C 4.328125 -12.285156 4.328125 -12.109375 4.246094 -11.78125 L 1.359375 -1.59375 C 1.183594 -1.011719 1.136719 -0.695312 0.789062 0 L 1.246094 0 C 1.3125 -0.679688 1.4375 -1.011719 1.609375 -1.609375 L 2.464844 -4.59375 L 6.695312 -4.59375 L 7.515625 -1.691406 C 7.707031 -1.011719 7.816406 -0.710938 7.847656 0 L 9.820312 0 C 9.503906 -0.617188 9.363281 -0.964844 9.160156 -1.691406 Z M 2.527344 -4.847656 L 4.578125 -12.09375 L 6.632812 -4.847656 Z M 2.527344 -4.847656 "/></g></g></g><g fill="#eeba2b" fill-opacity="1"><g transform="translate(142.445915, 247.297473)"><g><path d="M 10.167969 -12.632812 L 0.316406 -12.632812 L 1.011719 -11.746094 C 2.367188 -12.285156 3.585938 -12.378906 4.277344 -12.378906 L 4.46875 -12.378906 L 4.46875 -3.109375 C 4.46875 -1.957031 4.4375 -1.328125 4.34375 0 L 6.140625 0 C 6.046875 -1.328125 6.015625 -1.957031 6.015625 -3.109375 L 6.015625 -12.378906 L 6.207031 -12.378906 C 6.898438 -12.378906 8.117188 -12.285156 9.472656 -11.746094 Z M 10.167969 -12.632812 "/></g></g></g><g fill="#eeba2b" fill-opacity="1"><g transform="translate(152.928596, 247.297473)"><g><path d="M 12.742188 -5.257812 C 12.046875 -2.164062 10.34375 -0.15625 7.578125 -0.15625 C 4.199219 -0.15625 2.652344 -3.125 2.652344 -6.570312 C 2.652344 -9.949219 4.40625 -12.695312 7.167969 -12.695312 C 9.175781 -12.695312 10.261719 -11.085938 10.753906 -9.078125 L 12.332031 -9.503906 C 11.257812 -11.667969 9.617188 -12.949219 7.167969 -12.949219 C 3.695312 -12.949219 0.949219 -10.3125 0.949219 -6.472656 C 0.949219 -2.636719 3.253906 0.316406 7.183594 0.316406 C 10.4375 0.316406 12.238281 -1.894531 12.964844 -5.257812 Z M 12.742188 -5.257812 "/></g></g></g><g fill="#eeba2b" fill-opacity="1"><g transform="translate(166.521345, 247.297473)"><g><path d="M 10.105469 -9.519531 C 10.105469 -10.675781 10.121094 -11.304688 10.230469 -12.632812 L 8.433594 -12.632812 C 8.527344 -11.304688 8.558594 -10.675781 8.558594 -9.519531 L 8.558594 -6.441406 L 2.777344 -6.441406 L 2.777344 -9.519531 C 2.777344 -10.675781 2.8125 -11.304688 2.90625 -12.632812 L 1.105469 -12.632812 C 1.199219 -11.304688 1.230469 -10.675781 1.230469 -9.519531 L 1.230469 -3.109375 C 1.230469 -1.957031 1.199219 -1.328125 1.105469 0 L 2.90625 0 C 2.8125 -1.328125 2.777344 -1.957031 2.777344 -3.109375 L 2.777344 -6.191406 L 8.558594 -6.191406 L 8.558594 -3.109375 C 8.558594 -1.957031 8.527344 -1.328125 8.433594 0 L 10.230469 0 C 10.121094 -1.328125 10.105469 -1.957031 10.105469 -3.109375 Z M 10.105469 -9.519531 "/></g></g></g></svg>