<svg xmlns="http://www.w3.org/2000/svg" xmlns:xlink="http://www.w3.org/1999/xlink" width="500" zoomAndPan="magnify" viewBox="0 0 375 374.999991" height="500" preserveAspectRatio="xMidYMid meet" version="1.0"><path fill="#60bd81" d="M 157.257812 166.300781 L 152.578125 158.011719 C 151.492188 156.089844 148.535156 157.8125 149.621094 159.738281 L 154.300781 168.027344 C 155.386719 169.949219 158.34375 168.226562 157.257812 166.300781 Z M 157.257812 166.300781 " fill-opacity="1" fill-rule="nonzero"/><path fill="#60bd81" d="M 189.207031 158.777344 L 189.207031 149.136719 C 189.207031 146.925781 185.785156 146.925781 185.785156 149.136719 L 185.785156 158.777344 C 185.785156 160.988281 189.207031 160.988281 189.207031 158.777344 Z M 189.207031 158.777344 " fill-opacity="1" fill-rule="nonzero"/><path fill="#60bd81" d="M 220.75 168.300781 L 225.371094 159.738281 C 226.417969 157.796875 223.460938 156.066406 222.414062 158.011719 L 217.792969 166.574219 C 216.746094 168.515625 219.699219 170.246094 220.75 168.300781 Z M 220.75 168.300781 " fill-opacity="1" fill-rule="nonzero"/><path fill="#60bd81" d="M 242.9375 192.058594 L 251.410156 187.007812 C 253.304688 185.878906 251.582031 182.917969 249.683594 184.050781 L 241.207031 189.101562 C 239.3125 190.230469 241.035156 193.191406 242.9375 192.058594 Z M 242.9375 192.058594 " fill-opacity="1" fill-rule="nonzero"/><path fill="#60bd81" d="M 250.496094 223.640625 L 260.289062 223.640625 C 262.496094 223.640625 262.496094 220.214844 260.289062 220.214844 L 250.496094 220.214844 C 248.289062 220.214844 248.289062 223.640625 250.496094 223.640625 Z M 250.496094 223.640625 " fill-opacity="1" fill-rule="nonzero"/><path fill="#60bd81" d="M 241.332031 255.03125 L 249.683594 259.800781 C 251.605469 260.898438 253.328125 257.9375 251.414062 256.84375 L 243.0625 252.074219 C 241.140625 250.976562 239.417969 253.9375 241.332031 255.03125 Z M 241.332031 255.03125 " fill-opacity="1" fill-rule="nonzero"/><path fill="#60bd81" d="M 187.890625 217.558594 L 187.648438 217.558594 C 185.316406 217.558594 183.371094 219.507812 183.371094 221.839844 C 183.371094 224.171875 185.316406 226.121094 187.648438 226.121094 L 187.890625 226.121094 C 190.222656 226.121094 192.171875 224.171875 192.171875 221.839844 C 192.171875 219.507812 190.222656 217.558594 187.890625 217.558594 Z M 187.890625 217.558594 " fill-opacity="1" fill-rule="nonzero"/><path fill="#60bd81" d="M 188.476562 222.09375 L 188.476562 183.636719 C 188.476562 182.53125 186.765625 182.53125 186.765625 183.636719 L 186.765625 222.09375 C 186.765625 223.195312 188.476562 223.195312 188.476562 222.09375 Z M 188.476562 222.09375 " fill-opacity="1" fill-rule="nonzero"/><path fill="#60bd81" d="M 188.085938 221.40625 L 162.726562 177.53125 L 160.699219 174.019531 C 160.148438 173.0625 158.667969 173.925781 159.222656 174.882812 L 184.578125 218.761719 L 186.605469 222.269531 C 187.160156 223.226562 188.636719 222.363281 188.085938 221.40625 Z M 188.085938 221.40625 " fill-opacity="1" fill-rule="nonzero"/></svg>