<svg xmlns="http://www.w3.org/2000/svg" xmlns:xlink="http://www.w3.org/1999/xlink" width="500" zoomAndPan="magnify" viewBox="0 0 375 374.999991" height="500" preserveAspectRatio="xMidYMid meet" version="1.0"><defs><clipPath id="aacad33fe1"><path d="M 44.042969 158.605469 L 128.792969 158.605469 L 128.792969 243.355469 L 44.042969 243.355469 Z M 44.042969 158.605469 " clip-rule="nonzero"/></clipPath><clipPath id="490f098ce7"><path d="M 53 182 L 89 182 L 89 233.605469 L 53 233.605469 Z M 53 182 " clip-rule="nonzero"/></clipPath><clipPath id="1364745f4a"><path d="M 40.804688 158.605469 L 112.804688 158.605469 L 112.804688 231 L 40.804688 231 Z M 40.804688 158.605469 " clip-rule="nonzero"/></clipPath></defs><g clip-path="url(#aacad33fe1)"><path fill="#ffffff" d="M 128.792969 200.980469 C 128.792969 202.367188 128.722656 203.753906 128.585938 205.132812 C 128.449219 206.515625 128.246094 207.886719 127.976562 209.246094 C 127.707031 210.609375 127.371094 211.953125 126.964844 213.28125 C 126.5625 214.609375 126.097656 215.914062 125.566406 217.195312 C 125.035156 218.476562 124.441406 219.730469 123.789062 220.957031 C 123.132812 222.179688 122.421875 223.367188 121.648438 224.523438 C 120.878906 225.675781 120.054688 226.789062 119.171875 227.863281 C 118.292969 228.933594 117.359375 229.960938 116.378906 230.945312 C 115.398438 231.925781 114.371094 232.855469 113.296875 233.734375 C 112.226562 234.617188 111.113281 235.441406 109.957031 236.214844 C 108.804688 236.984375 107.617188 237.695312 106.390625 238.351562 C 105.167969 239.003906 103.914062 239.597656 102.632812 240.128906 C 101.351562 240.660156 100.046875 241.128906 98.71875 241.53125 C 97.390625 241.933594 96.042969 242.269531 94.683594 242.539062 C 93.324219 242.8125 91.953125 243.015625 90.570312 243.152344 C 89.1875 243.285156 87.804688 243.355469 86.417969 243.355469 C 85.027344 243.355469 83.644531 243.285156 82.261719 243.152344 C 80.882812 243.015625 79.511719 242.8125 78.148438 242.539062 C 76.789062 242.269531 75.445312 241.933594 74.117188 241.53125 C 72.789062 241.128906 71.484375 240.660156 70.199219 240.128906 C 68.917969 239.597656 67.664062 239.003906 66.441406 238.351562 C 65.21875 237.695312 64.027344 236.984375 62.875 236.214844 C 61.722656 235.441406 60.609375 234.617188 59.535156 233.734375 C 58.460938 232.855469 57.433594 231.925781 56.453125 230.945312 C 55.472656 229.960938 54.542969 228.933594 53.660156 227.863281 C 52.78125 226.789062 51.953125 225.675781 51.183594 224.523438 C 50.414062 223.367188 49.699219 222.179688 49.046875 220.957031 C 48.390625 219.730469 47.800781 218.476562 47.269531 217.195312 C 46.738281 215.914062 46.269531 214.609375 45.867188 213.28125 C 45.464844 211.953125 45.128906 210.609375 44.855469 209.246094 C 44.585938 207.886719 44.382812 206.515625 44.246094 205.132812 C 44.109375 203.753906 44.042969 202.367188 44.042969 200.980469 C 44.042969 199.59375 44.109375 198.207031 44.246094 196.828125 C 44.382812 195.445312 44.585938 194.074219 44.855469 192.714844 C 45.128906 191.351562 45.464844 190.007812 45.867188 188.679688 C 46.269531 187.351562 46.738281 186.046875 47.269531 184.765625 C 47.800781 183.480469 48.390625 182.230469 49.046875 181.003906 C 49.699219 179.78125 50.414062 178.59375 51.183594 177.4375 C 51.953125 176.285156 52.78125 175.171875 53.660156 174.097656 C 54.542969 173.023438 55.472656 172 56.453125 171.015625 C 57.433594 170.035156 58.460938 169.105469 59.535156 168.222656 C 60.609375 167.34375 61.722656 166.519531 62.875 165.746094 C 64.027344 164.976562 65.21875 164.261719 66.441406 163.609375 C 67.664062 162.957031 68.917969 162.363281 70.199219 161.832031 C 71.484375 161.300781 72.789062 160.832031 74.117188 160.429688 C 75.445312 160.027344 76.789062 159.691406 78.148438 159.421875 C 79.511719 159.148438 80.882812 158.945312 82.261719 158.808594 C 83.644531 158.675781 85.027344 158.605469 86.417969 158.605469 C 87.804688 158.605469 89.1875 158.675781 90.570312 158.808594 C 91.953125 158.945312 93.324219 159.148438 94.683594 159.421875 C 96.042969 159.691406 97.390625 160.027344 98.71875 160.429688 C 100.046875 160.832031 101.351562 161.300781 102.632812 161.832031 C 103.914062 162.363281 105.167969 162.957031 106.390625 163.609375 C 107.617188 164.261719 108.804688 164.976562 109.957031 165.746094 C 111.113281 166.519531 112.226562 167.34375 113.296875 168.222656 C 114.371094 169.105469 115.398438 170.035156 116.378906 171.015625 C 117.359375 172 118.292969 173.023438 119.171875 174.097656 C 120.054688 175.171875 120.878906 176.285156 121.648438 177.4375 C 122.421875 178.59375 123.132812 179.78125 123.789062 181.003906 C 124.441406 182.230469 125.035156 183.480469 125.566406 184.765625 C 126.097656 186.046875 126.5625 187.351562 126.964844 188.679688 C 127.371094 190.007812 127.707031 191.351562 127.976562 192.714844 C 128.246094 194.074219 128.449219 195.445312 128.585938 196.828125 C 128.722656 198.207031 128.792969 199.59375 128.792969 200.980469 Z M 128.792969 200.980469 " fill-opacity="1" fill-rule="nonzero"/></g><path fill="#020203" d="M 61.738281 208.886719 L 50.441406 183.972656 L 49.058594 184.585938 L 60.941406 210.75 Z M 61.738281 208.886719 " fill-opacity="1" fill-rule="nonzero"/><path fill="#020203" d="M 103.132812 183.972656 L 89.433594 214.230469 L 91.074219 214.230469 L 104.5 184.585938 Z M 103.132812 183.972656 " fill-opacity="1" fill-rule="nonzero"/><g clip-path="url(#490f098ce7)"><path fill="#020203" d="M 78.851562 184.78125 C 78.851562 183.632812 77.925781 182.710938 76.769531 182.710938 C 75.617188 182.710938 74.691406 183.632812 74.691406 184.78125 C 74.691406 185.171875 74.804688 185.558594 75.015625 185.898438 L 53.820312 233.058594 L 54.894531 233.542969 L 76.804688 187.046875 L 87.351562 208.140625 L 88.40625 207.640625 L 78.542969 185.851562 C 78.753906 185.527344 78.851562 185.152344 78.851562 184.78125 Z M 78.851562 184.78125 " fill-opacity="1" fill-rule="nonzero"/></g><g clip-path="url(#1364745f4a)"><path fill="#020203" d="M 76.804688 158.667969 C 56.925781 158.667969 40.804688 174.726562 40.804688 194.527344 C 40.804688 205.503906 45.761719 215.332031 53.578125 221.917969 L 53.578125 219.992188 C 46.621094 213.695312 42.265625 204.613281 42.265625 194.527344 C 42.25 175.523438 57.722656 160.109375 76.804688 160.109375 C 95.882812 160.109375 111.339844 175.523438 111.339844 194.527344 C 111.339844 213.535156 95.867188 228.929688 76.804688 228.929688 C 71.8125 228.929688 67.050781 227.875 62.777344 225.964844 L 62.777344 227.554688 C 67.085938 229.367188 71.828125 230.386719 76.804688 230.386719 C 96.679688 230.386719 112.804688 214.328125 112.804688 194.527344 C 112.804688 174.726562 96.679688 158.667969 76.804688 158.667969 Z M 76.804688 158.667969 " fill-opacity="1" fill-rule="nonzero"/></g></svg>